<svg xmlns="http://www.w3.org/2000/svg" viewBox="0 0 422.53 274.62"><defs><style>.cls-1{fill:#1cad6f;}.cls-1,.cls-2,.cls-3,.cls-4{stroke:#fdfdfd;stroke-miterlimit:10;stroke-width:0.25px;}.cls-2{fill:#1c578e;}.cls-3{fill:#555bbd;}.cls-4{fill:#1cffd6;}.cls-5{fill:#fdfdfd;}</style></defs><title>no_text</title><g id="Layer_1" data-name="Layer 1"><path class="cls-1" d="M280,141.75V7A134.79,134.79,0,0,1,414.8,141.75Z" transform="translate(7.6 -6.83)"/><path class="cls-2" d="M274.25,141.75H139.45A134.79,134.79,0,0,1,274.25,7Z" transform="translate(7.6 -6.83)"/><path class="cls-3" d="M274.25,146.53v134.8a134.79,134.79,0,0,1-134.8-134.8Z" transform="translate(7.6 -6.83)"/><path class="cls-4" d="M280,146.53H414.8A134.79,134.79,0,0,1,280,281.33Z" transform="translate(7.6 -6.83)"/></g><g id="Layer_2" data-name="Layer 2"><path class="cls-5" d="M361.58,75.68a1.58,1.58,0,0,0,0,3.16h6.22a1.58,1.58,0,0,0,0-3.16Z" transform="translate(7.6 -6.83)"/><path class="cls-5" d="M299.45,75.68a1.58,1.58,0,0,0,0,3.16h6.21a1.58,1.58,0,0,0,0-3.16Z" transform="translate(7.6 -6.83)"/><path class="cls-5" d="M373,208.82s0-.08,0-.12a.13.13,0,0,0,0-.06l0-.16v0l-.06-.17h0l-12.35-27.8,5.62-5.62a1.6,1.6,0,0,0-2.26-2.26l-5.68,5.68-18.25-6.52a7.29,7.29,0,0,0,.1-1.23,8,8,0,1,0-16,0,7.29,7.29,0,0,0,.1,1.23l-18.24,6.52-5.69-5.68a1.6,1.6,0,0,0-2.26,2.26l5.62,5.62-12.35,27.8h0a.87.87,0,0,0-.07.17v0a.94.94,0,0,0,0,.16v.06a.49.49,0,0,0,0,.12.17.17,0,0,0,0,.07v0a14.4,14.4,0,0,0,28.8,0v-.11s0-.08,0-.12a.13.13,0,0,0,0-.06l0-.16v0l-.06-.17h0l-12.1-27.23,17.61-6.29a8.39,8.39,0,0,0,2,2.17v43a11.38,11.38,0,0,0-3.12,2.2,11.07,11.07,0,0,0-3.17,6.4A14.42,14.42,0,0,0,308,242.85a1.6,1.6,0,0,0,1.6,1.6h44.8a1.6,1.6,0,0,0,1.6-1.6,14.41,14.41,0,0,0-12.9-14.32,11.14,11.14,0,0,0-3.18-6.4,11.38,11.38,0,0,0-3.12-2.2v-43a8.07,8.07,0,0,0,2-2.17l17.61,6.29-12.1,27.23h0a.87.87,0,0,0-.07.17v0a.94.94,0,0,0,0,.16.13.13,0,0,0,0,.06.49.49,0,0,0,0,.12.17.17,0,0,0,0,.07v0a14.4,14.4,0,0,0,28.8,0v-.11Zm-41,10a12.17,12.17,0,0,0-1.6.11V178.37a8.08,8.08,0,0,0,3.2,0V219A12.17,12.17,0,0,0,332,218.85Zm0-53.12a4.81,4.81,0,0,1,4.5,6.48,4.81,4.81,0,0,1-6.9,2.48,4.8,4.8,0,0,1-2.09-2.48h0a4.55,4.55,0,0,1-.31-1.68A4.8,4.8,0,0,1,332,165.73Zm-18.64,51.12a11.2,11.2,0,0,1-19-6.32h22.17A11.18,11.18,0,0,1,313.38,216.85Zm-6.32-9.52v-4.8a1.6,1.6,0,0,0-3.2,0v4.8h-8.74l10.34-23.26,10.34,23.26Zm45.65,33.92H311.33a11.22,11.22,0,0,1,11.09-9.6h19.2A11.22,11.22,0,0,1,352.71,241.25Zm-12.85-12.8H324.18a8,8,0,0,1,2.18-4.06,8.18,8.18,0,0,1,3-1.89,8.15,8.15,0,0,1,5.34,0,8.18,8.18,0,0,1,3,1.89A8,8,0,0,1,339.86,228.45Zm18.72-44.38,10.34,23.26h-8.74v-4.8a1.6,1.6,0,0,0-3.2,0v4.8h-8.74Zm7.92,32.78a11.2,11.2,0,0,1-19-6.32h22.17A11.18,11.18,0,0,1,366.5,216.85Z" transform="translate(7.6 -6.83)"/><path class="cls-5" d="M335.22,234.85h-12.8a1.6,1.6,0,0,0,0,3.2h12.8a1.6,1.6,0,0,0,0-3.2Z" transform="translate(7.6 -6.83)"/><path class="cls-5" d="M340,236.45a1.6,1.6,0,1,0,1.6-1.6A1.6,1.6,0,0,0,340,236.45Z" transform="translate(7.6 -6.83)"/><path class="cls-5" d="M243,198.92a28.19,28.19,0,0,0-11-19.55V165.28a1.81,1.81,0,0,0-1.81-1.81h-6.7a1.81,1.81,0,0,0-1.81,1.81v7.21h-6.09a1.82,1.82,0,0,0-1.7,1.21,28.2,28.2,0,0,0-1.74,56.23,1.23,1.23,0,0,0,1.33-1.09,1.21,1.21,0,0,0-1.09-1.32,25.78,25.78,0,0,1-15.63-43.88,25.55,25.55,0,0,1,17-7.51v4.31h-6.08a1.81,1.81,0,0,0-1.81,1.81v.22A21.43,21.43,0,1,0,232,188.82v-6.33a25.8,25.8,0,0,1,8.63,16.68,1.21,1.21,0,0,0,2.41-.25Zm-18.94-33h5.48v40h-5.48Zm-7.89,9h5.47v31h-5.47Zm-7.9,7.94h5.47v23h-5.47Zm-2.42,2.32V188H202A18.79,18.79,0,0,1,205.85,185.18Zm-5.48,5.23h5.48v15.47h-5.48ZM198,193.35v12.53h-1.58A19.11,19.11,0,0,1,198,193.35Zm34,0a19,19,0,0,1,1.6,12.53H232Zm.9,15a19,19,0,0,1-35.8,0Z" transform="translate(7.6 -6.83)"/><path class="cls-5" d="M259.24,237.71a3.38,3.38,0,0,0-1.24-2.45l-14-11.44a3.37,3.37,0,0,0-4.53.23l-.31.31L235.74,221A28.29,28.29,0,0,0,243,204.83a1.21,1.21,0,0,0-2.41-.26,25.73,25.73,0,0,1-22.83,22.92,1.22,1.22,0,0,0-1.08,1.34A1.21,1.21,0,0,0,218,229.9a28.24,28.24,0,0,0,16-7.24l3.41,3.41-.31.31a3.38,3.38,0,0,0-.23,4.53l11.44,14a3.38,3.38,0,0,0,2.45,1.23H251a3.4,3.4,0,0,0,2.39-1l4.9-4.9A3.41,3.41,0,0,0,259.24,237.71Zm-2.7.85-4.9,4.89a.91.91,0,0,1-.73.28.9.9,0,0,1-.69-.35l-11.44-14a1,1,0,0,1,.06-1.29l2.33-2.33a1,1,0,0,1,1.29-.06l14,11.43a1,1,0,0,1,.35.7A1,1,0,0,1,256.54,238.56Z" transform="translate(7.6 -6.83)"/><text x="7.6" y="-6.83"></text><path class="cls-5" d="M257.29,84.42a1.63,1.63,0,0,0,1.62-1.62V72.14a1.62,1.62,0,0,0-1.62-1.62h-8.75a3.22,3.22,0,0,0-3.08,2.25h-22.8l0,0a22.91,22.91,0,0,0-14-1.64l-13.09,2.55h-6a3.25,3.25,0,0,0-3.24-3.13h-8.75A1.62,1.62,0,0,0,176,72.14V82.55a1.62,1.62,0,1,0,3.24,0V73.76h7.13v30.71H179.2V95.84a1.62,1.62,0,1,0-3.24,0v10.25a1.63,1.63,0,0,0,1.62,1.62h8.75a3.24,3.24,0,0,0,3.24-3.24v0a6,6,0,0,1,2.06,1l.76.58a5.13,5.13,0,0,0,5.11,4.58h.35a5.13,5.13,0,0,0,5.11,4.5h.34a5.17,5.17,0,0,0,5.1,4.51l.36,0a5.15,5.15,0,0,0,5.1,4.51l.5,0a5.11,5.11,0,0,0,3.48-1.86l1.32-1.6a5,5,0,0,0,.87-1.53,5.35,5.35,0,0,0,2.52.63h.08a5.39,5.39,0,0,0,4.94-3.46l.56.54a5.35,5.35,0,0,0,7.58-.11,5.19,5.19,0,0,0,1.26-2.1,5.28,5.28,0,0,0,2.39.56A5.37,5.37,0,0,0,243.1,106L242,104.88l3.33-1.8v1.39a3.24,3.24,0,0,0,3.24,3.24h8.75a1.63,1.63,0,0,0,1.62-1.62V95.35a1.62,1.62,0,0,0-3.24,0v9.12h-7.13V73.76h7.13v9A1.62,1.62,0,0,0,257.29,84.42Zm-57,20.7L199,106.71a1.91,1.91,0,0,1-2.69.27,1.93,1.93,0,0,1-.26-2.7l1.32-1.6a1.85,1.85,0,0,1,1.29-.68h.19a1.91,1.91,0,0,1,1.47,3.13Zm5.45,4.49-1.31,1.6a1.93,1.93,0,0,1-2.7.26,1.93,1.93,0,0,1-.26-2.69l1.32-1.6a1.89,1.89,0,0,1,1.29-.69h.19a1.92,1.92,0,0,1,1.9,1.73A1.88,1.88,0,0,1,205.75,109.61Zm5.46,4.49-1.32,1.6a1.9,1.9,0,0,1-1.29.69,1.91,1.91,0,0,1-1.66-3.12l1.31-1.6a1.92,1.92,0,0,1,1.48-.7,2,2,0,0,1,1.22.44A1.92,1.92,0,0,1,211.21,114.1Zm5.45,4.49-1.32,1.6a1.9,1.9,0,0,1-2.69.26,1.92,1.92,0,0,1-.26-2.69l1.32-1.6a1.9,1.9,0,0,1,1.29-.69h.19a1.91,1.91,0,0,1,1.21.44,1.9,1.9,0,0,1,.26,2.69Zm24.22-7.29a2.12,2.12,0,0,1-3,0l-5.37-5.22h0L227.2,101a1.62,1.62,0,0,0-2.26,2.33l8.41,8.17a2.12,2.12,0,0,1,0,3,2.14,2.14,0,0,1-3,.05l-8.4-8.17-.06,0-4-3.93a1.62,1.62,0,0,0-2.25,2.33l8.4,8.17a2.13,2.13,0,1,1-3,3l-2.35-2.29-.17-.14-.09-.08a5.09,5.09,0,0,0-3.62-1.16,5.13,5.13,0,0,0-5.45-4.49,5.15,5.15,0,0,0-5.46-4.5,5.15,5.15,0,0,0-9.08-2.63l-1.32,1.6c-.11.14-.22.28-.31.42a9.32,9.32,0,0,0-3.65-1.51V76.89h6.14a1.63,1.63,0,0,0,.31,0l13.24-2.58a19.78,19.78,0,0,1,6.73-.15,15.49,15.49,0,0,0-4.56,3.14L199.16,89.4a5.74,5.74,0,0,0,4,9.82,5.69,5.69,0,0,0,2.82-.74l12.86-7.26h4.43l17.53,17.08a2.12,2.12,0,0,1,0,3Zm4.42-11.9-5.76,3.11L228,91.22h1.13a1.62,1.62,0,1,0,0-3.24H218.45a1.62,1.62,0,0,0-.8.21l-13.22,7.47a2.5,2.5,0,0,1-3-4l12.27-12.14A12.23,12.23,0,0,1,222.37,76H245.3Z" transform="translate(7.6 -6.83)"/><path class="cls-5" d="M315.17,60.07a1.61,1.61,0,0,0,0-2.23l-4.39-4.47a1.55,1.55,0,0,0-2.2,0,1.6,1.6,0,0,0,0,2.24L313,60.07A1.53,1.53,0,0,0,315.17,60.07Z" transform="translate(7.6 -6.83)"/><path class="cls-5" d="M358.66,53.37a1.54,1.54,0,0,0-2.19,0l-4.4,4.47a1.61,1.61,0,0,0,0,2.23,1.53,1.53,0,0,0,2.2,0l4.39-4.46A1.6,1.6,0,0,0,358.66,53.37Z" transform="translate(7.6 -6.83)"/><path class="cls-5" d="M335.17,52V44.72a1.55,1.55,0,1,0-3.1,0V52a1.55,1.55,0,1,0,3.1,0Z" transform="translate(7.6 -6.83)"/><path class="cls-5" d="M322.75,116.11a7.84,7.84,0,0,0,7.76,7.9h6.22a7.84,7.84,0,0,0,7.76-7.9v-5.72A18.74,18.74,0,0,1,350,97.18a23.74,23.74,0,0,0-16.83-40.45c-12.16.21-22.43,10.44-22.87,22.8A23.65,23.65,0,0,0,317,97a19.48,19.48,0,0,1,5.77,13.44Zm18.64,0a4.71,4.71,0,0,1-4.66,4.74h-6.22a4.71,4.71,0,0,1-4.66-4.74v-2.53h15.54Zm-9.32-5.69V88.31h3.1v22.11ZM319.2,94.74a20.49,20.49,0,0,1-5.76-15.09c.39-10.72,9.28-19.58,19.83-19.77a20.58,20.58,0,0,1,14.59,35.06,21.85,21.85,0,0,0-6.47,15.45v0h-3.11V88.31h1.55a4.74,4.74,0,1,0-4.66-4.74,4.81,4.81,0,0,0,.27,1.58H331.8a4.81,4.81,0,0,0,.27-1.58,4.66,4.66,0,1,0-4.66,4.74H329v22.11h-3.11v0A22.67,22.67,0,0,0,319.2,94.74Zm19.08-11.17a1.56,1.56,0,1,1,1.55,1.58A1.57,1.57,0,0,1,338.28,83.57Zm-9.32,0A1.56,1.56,0,1,1,327.41,82,1.57,1.57,0,0,1,329,83.57Z" transform="translate(7.6 -6.83)"/><path class="cls-5" d="M323.06,72.15a12.32,12.32,0,0,1,10.56-6,1.58,1.58,0,0,0,0-3.16,15.38,15.38,0,0,0-13.19,7.44,1.58,1.58,0,0,0,.5,2.17A1.53,1.53,0,0,0,323.06,72.15Z" transform="translate(7.6 -6.83)"/><path class="cls-5" d="M319.64,75.68a1.58,1.58,0,1,0,1.55,1.58A1.56,1.56,0,0,0,319.64,75.68Z" transform="translate(7.6 -6.83)"/></g></svg>