<svg xmlns="http://www.w3.org/2000/svg" viewBox="0 0 547.72 274.62"><defs><style>.cls-1{fill:#1cad6f;}.cls-1,.cls-2,.cls-3,.cls-4{stroke:#fdfdfd;stroke-miterlimit:10;stroke-width:0.25px;}.cls-2{fill:#1c578e;}.cls-3{fill:#555bbd;}.cls-4{fill:#1cffd6;}.cls-5{fill:#fdfdfd;}</style></defs><title>services</title><g id="Layer_1" data-name="Layer 1"><path class="cls-1" d="M280,141.75V7A134.79,134.79,0,0,1,414.8,141.75Z" transform="translate(7.6 -6.83)"/><path class="cls-2" d="M274.25,141.75H139.45A134.79,134.79,0,0,1,274.25,7Z" transform="translate(7.6 -6.83)"/><path class="cls-3" d="M274.25,146.53v134.8a134.79,134.79,0,0,1-134.8-134.8Z" transform="translate(7.6 -6.83)"/><path class="cls-4" d="M280,146.53H414.8A134.79,134.79,0,0,1,280,281.33Z" transform="translate(7.6 -6.83)"/></g><g id="Layer_2" data-name="Layer 2"><path class="cls-5" d="M361.58,75.68a1.58,1.58,0,0,0,0,3.16h6.22a1.58,1.58,0,0,0,0-3.16Z" transform="translate(7.6 -6.83)"/><path class="cls-5" d="M299.45,75.68a1.58,1.58,0,0,0,0,3.16h6.21a1.58,1.58,0,0,0,0-3.16Z" transform="translate(7.6 -6.83)"/><path class="cls-5" d="M373,208.82s0-.08,0-.12a.13.13,0,0,0,0-.06l0-.16v0l-.06-.17h0l-12.35-27.8,5.62-5.62a1.6,1.6,0,0,0-2.26-2.26l-5.68,5.68-18.25-6.52a7.29,7.29,0,0,0,.1-1.23,8,8,0,1,0-16,0,7.29,7.29,0,0,0,.1,1.23l-18.24,6.52-5.69-5.68a1.6,1.6,0,0,0-2.26,2.26l5.62,5.62-12.35,27.8h0a.87.87,0,0,0-.07.17v0a.94.94,0,0,0,0,.16v.06a.49.49,0,0,0,0,.12.17.17,0,0,0,0,.07v0a14.4,14.4,0,0,0,28.8,0v-.11s0-.08,0-.12a.13.13,0,0,0,0-.06l0-.16v0l-.06-.17h0l-12.1-27.23,17.61-6.29a8.39,8.39,0,0,0,2,2.17v43a11.38,11.38,0,0,0-3.12,2.2,11.07,11.07,0,0,0-3.17,6.4A14.42,14.42,0,0,0,308,242.85a1.6,1.6,0,0,0,1.6,1.6h44.8a1.6,1.6,0,0,0,1.6-1.6,14.41,14.41,0,0,0-12.9-14.32,11.14,11.14,0,0,0-3.18-6.4,11.38,11.38,0,0,0-3.12-2.2v-43a8.07,8.07,0,0,0,2-2.17l17.61,6.29-12.1,27.23h0a.87.87,0,0,0-.07.17v0a.94.94,0,0,0,0,.16.13.13,0,0,0,0,.06.49.49,0,0,0,0,.12.17.17,0,0,0,0,.07v0a14.4,14.4,0,0,0,28.8,0v-.11Zm-41,10a12.17,12.17,0,0,0-1.6.11V178.37a8.08,8.08,0,0,0,3.2,0V219A12.17,12.17,0,0,0,332,218.85Zm0-53.12a4.81,4.81,0,0,1,4.5,6.48,4.81,4.81,0,0,1-6.9,2.48,4.8,4.8,0,0,1-2.09-2.48h0a4.55,4.55,0,0,1-.31-1.68A4.8,4.8,0,0,1,332,165.73Zm-18.64,51.12a11.2,11.2,0,0,1-19-6.32h22.17A11.18,11.18,0,0,1,313.38,216.85Zm-6.32-9.52v-4.8a1.6,1.6,0,0,0-3.2,0v4.8h-8.74l10.34-23.26,10.34,23.26Zm45.65,33.92H311.33a11.22,11.22,0,0,1,11.09-9.6h19.2A11.22,11.22,0,0,1,352.71,241.25Zm-12.85-12.8H324.18a8,8,0,0,1,2.18-4.06,8.18,8.18,0,0,1,3-1.89,8.15,8.15,0,0,1,5.34,0,8.18,8.18,0,0,1,3,1.89A8,8,0,0,1,339.86,228.45Zm18.72-44.38,10.34,23.26h-8.74v-4.8a1.6,1.6,0,0,0-3.2,0v4.8h-8.74Zm7.92,32.78a11.2,11.2,0,0,1-19-6.32h22.17A11.18,11.18,0,0,1,366.5,216.85Z" transform="translate(7.6 -6.83)"/><path class="cls-5" d="M335.22,234.85h-12.8a1.6,1.6,0,0,0,0,3.2h12.8a1.6,1.6,0,0,0,0-3.2Z" transform="translate(7.6 -6.83)"/><path class="cls-5" d="M340,236.45a1.6,1.6,0,1,0,1.6-1.6A1.6,1.6,0,0,0,340,236.45Z" transform="translate(7.6 -6.83)"/><path class="cls-5" d="M243,198.92a28.19,28.19,0,0,0-11-19.55V165.28a1.81,1.81,0,0,0-1.81-1.81h-6.7a1.81,1.81,0,0,0-1.81,1.81v7.21h-6.09a1.82,1.82,0,0,0-1.7,1.21,28.2,28.2,0,0,0-1.74,56.23,1.23,1.23,0,0,0,1.33-1.09,1.21,1.21,0,0,0-1.09-1.32,25.78,25.78,0,0,1-15.63-43.88,25.55,25.55,0,0,1,17-7.51v4.31h-6.08a1.81,1.81,0,0,0-1.81,1.81v.22A21.43,21.43,0,1,0,232,188.82v-6.33a25.8,25.8,0,0,1,8.63,16.68,1.21,1.21,0,0,0,2.41-.25Zm-18.94-33h5.48v40h-5.48Zm-7.89,9h5.47v31h-5.47Zm-7.9,7.94h5.47v23h-5.47Zm-2.42,2.32V188H202A18.79,18.79,0,0,1,205.85,185.18Zm-5.48,5.23h5.48v15.47h-5.48ZM198,193.35v12.53h-1.58A19.11,19.11,0,0,1,198,193.35Zm34,0a19,19,0,0,1,1.6,12.53H232Zm.9,15a19,19,0,0,1-35.8,0Z" transform="translate(7.6 -6.83)"/><path class="cls-5" d="M259.24,237.71a3.38,3.38,0,0,0-1.24-2.45l-14-11.44a3.37,3.37,0,0,0-4.53.23l-.31.31L235.74,221A28.29,28.29,0,0,0,243,204.83a1.21,1.21,0,0,0-2.41-.26,25.73,25.73,0,0,1-22.83,22.92,1.22,1.22,0,0,0-1.08,1.34A1.21,1.21,0,0,0,218,229.9a28.24,28.24,0,0,0,16-7.24l3.41,3.41-.31.31a3.38,3.38,0,0,0-.23,4.53l11.44,14a3.38,3.38,0,0,0,2.45,1.23H251a3.4,3.4,0,0,0,2.39-1l4.9-4.9A3.41,3.41,0,0,0,259.24,237.71Zm-2.7.85-4.9,4.89a.91.91,0,0,1-.73.28.9.9,0,0,1-.69-.35l-11.44-14a1,1,0,0,1,.06-1.29l2.33-2.33a1,1,0,0,1,1.29-.06l14,11.43a1,1,0,0,1,.35.7A1,1,0,0,1,256.54,238.56Z" transform="translate(7.6 -6.83)"/><text x="7.6" y="-6.83"></text><path class="cls-5" d="M257.29,84.42a1.63,1.63,0,0,0,1.62-1.62V72.14a1.62,1.62,0,0,0-1.62-1.62h-8.75a3.22,3.22,0,0,0-3.08,2.25h-22.8l0,0a22.91,22.91,0,0,0-14-1.64l-13.09,2.55h-6a3.25,3.25,0,0,0-3.24-3.13h-8.75A1.62,1.62,0,0,0,176,72.14V82.55a1.62,1.62,0,1,0,3.24,0V73.76h7.13v30.71H179.2V95.84a1.62,1.62,0,1,0-3.24,0v10.25a1.63,1.63,0,0,0,1.62,1.62h8.75a3.24,3.24,0,0,0,3.24-3.24v0a6,6,0,0,1,2.06,1l.76.58a5.13,5.13,0,0,0,5.11,4.58h.35a5.13,5.13,0,0,0,5.11,4.5h.34a5.17,5.17,0,0,0,5.1,4.51l.36,0a5.15,5.15,0,0,0,5.1,4.51l.5,0a5.11,5.11,0,0,0,3.48-1.86l1.32-1.6a5,5,0,0,0,.87-1.53,5.35,5.35,0,0,0,2.52.63h.08a5.39,5.39,0,0,0,4.94-3.46l.56.54a5.35,5.35,0,0,0,7.58-.11,5.19,5.19,0,0,0,1.26-2.1,5.28,5.28,0,0,0,2.39.56A5.37,5.37,0,0,0,243.1,106L242,104.88l3.33-1.8v1.39a3.24,3.24,0,0,0,3.24,3.24h8.75a1.63,1.63,0,0,0,1.62-1.62V95.35a1.62,1.62,0,0,0-3.24,0v9.12h-7.13V73.76h7.13v9A1.62,1.62,0,0,0,257.29,84.42Zm-57,20.7L199,106.71a1.91,1.91,0,0,1-2.69.27,1.93,1.93,0,0,1-.26-2.7l1.32-1.6a1.85,1.85,0,0,1,1.29-.68h.19a1.91,1.91,0,0,1,1.47,3.13Zm5.45,4.49-1.31,1.6a1.93,1.93,0,0,1-2.7.26,1.93,1.93,0,0,1-.26-2.69l1.32-1.6a1.89,1.89,0,0,1,1.29-.69h.19a1.92,1.92,0,0,1,1.9,1.73A1.88,1.88,0,0,1,205.75,109.61Zm5.46,4.49-1.32,1.6a1.9,1.9,0,0,1-1.29.69,1.91,1.91,0,0,1-1.66-3.12l1.31-1.6a1.92,1.92,0,0,1,1.48-.7,2,2,0,0,1,1.22.44A1.92,1.92,0,0,1,211.21,114.1Zm5.45,4.49-1.32,1.6a1.9,1.9,0,0,1-2.69.26,1.92,1.92,0,0,1-.26-2.69l1.32-1.6a1.9,1.9,0,0,1,1.29-.69h.19a1.91,1.91,0,0,1,1.21.44,1.9,1.9,0,0,1,.26,2.69Zm24.22-7.29a2.12,2.12,0,0,1-3,0l-5.37-5.22h0L227.2,101a1.62,1.62,0,0,0-2.26,2.33l8.41,8.17a2.12,2.12,0,0,1,0,3,2.14,2.14,0,0,1-3,.05l-8.4-8.17-.06,0-4-3.93a1.62,1.62,0,0,0-2.25,2.33l8.4,8.17a2.13,2.13,0,1,1-3,3l-2.35-2.29-.17-.14-.09-.08a5.09,5.09,0,0,0-3.62-1.16,5.13,5.13,0,0,0-5.45-4.49,5.15,5.15,0,0,0-5.46-4.5,5.15,5.15,0,0,0-9.08-2.63l-1.32,1.6c-.11.14-.22.28-.31.42a9.32,9.32,0,0,0-3.65-1.51V76.89h6.14a1.63,1.63,0,0,0,.31,0l13.24-2.58a19.78,19.78,0,0,1,6.73-.15,15.49,15.49,0,0,0-4.56,3.14L199.16,89.4a5.74,5.74,0,0,0,4,9.82,5.69,5.69,0,0,0,2.82-.74l12.86-7.26h4.43l17.53,17.08a2.12,2.12,0,0,1,0,3Zm4.42-11.9-5.76,3.11L228,91.22h1.13a1.62,1.62,0,1,0,0-3.24H218.45a1.62,1.62,0,0,0-.8.21l-13.22,7.47a2.5,2.5,0,0,1-3-4l12.27-12.14A12.23,12.23,0,0,1,222.37,76H245.3Z" transform="translate(7.6 -6.83)"/><path class="cls-5" d="M315.17,60.07a1.61,1.61,0,0,0,0-2.23l-4.39-4.47a1.55,1.55,0,0,0-2.2,0,1.6,1.6,0,0,0,0,2.24L313,60.07A1.53,1.53,0,0,0,315.17,60.07Z" transform="translate(7.6 -6.83)"/><path class="cls-5" d="M358.66,53.37a1.54,1.54,0,0,0-2.19,0l-4.4,4.47a1.61,1.61,0,0,0,0,2.23,1.53,1.53,0,0,0,2.2,0l4.39-4.46A1.6,1.6,0,0,0,358.66,53.37Z" transform="translate(7.6 -6.83)"/><path class="cls-5" d="M335.17,52V44.72a1.55,1.55,0,1,0-3.1,0V52a1.55,1.55,0,1,0,3.1,0Z" transform="translate(7.6 -6.83)"/><path class="cls-5" d="M322.75,116.11a7.84,7.84,0,0,0,7.76,7.9h6.22a7.84,7.84,0,0,0,7.76-7.9v-5.72A18.74,18.74,0,0,1,350,97.18a23.74,23.74,0,0,0-16.83-40.45c-12.16.21-22.43,10.44-22.87,22.8A23.65,23.65,0,0,0,317,97a19.48,19.48,0,0,1,5.77,13.44Zm18.64,0a4.71,4.71,0,0,1-4.66,4.74h-6.22a4.71,4.71,0,0,1-4.66-4.74v-2.53h15.54Zm-9.32-5.69V88.31h3.1v22.11ZM319.2,94.74a20.49,20.49,0,0,1-5.76-15.09c.39-10.72,9.28-19.58,19.83-19.77a20.58,20.58,0,0,1,14.59,35.06,21.85,21.85,0,0,0-6.47,15.45v0h-3.11V88.31h1.55a4.74,4.74,0,1,0-4.66-4.74,4.81,4.81,0,0,0,.27,1.58H331.8a4.81,4.81,0,0,0,.27-1.58,4.66,4.66,0,1,0-4.66,4.74H329v22.11h-3.11v0A22.67,22.67,0,0,0,319.2,94.74Zm19.08-11.17a1.56,1.56,0,1,1,1.55,1.58A1.57,1.57,0,0,1,338.28,83.57Zm-9.32,0A1.56,1.56,0,1,1,327.41,82,1.57,1.57,0,0,1,329,83.57Z" transform="translate(7.6 -6.83)"/><path class="cls-5" d="M323.06,72.15a12.32,12.32,0,0,1,10.56-6,1.58,1.58,0,0,0,0-3.16,15.38,15.38,0,0,0-13.19,7.44,1.58,1.58,0,0,0,.5,2.17A1.53,1.53,0,0,0,323.06,72.15Z" transform="translate(7.6 -6.83)"/><path class="cls-5" d="M319.64,75.68a1.58,1.58,0,1,0,1.55,1.58A1.56,1.56,0,0,0,319.64,75.68Z" transform="translate(7.6 -6.83)"/></g><g id="Layer_3" data-name="Layer 3"><path d="M19.92,19.71c0-4.23,2.5-6.81,5.83-6.81a4.91,4.91,0,0,1,3.61,1.61l-.91,1.09a3.56,3.56,0,0,0-2.67-1.24c-2.48,0-4.13,2-4.13,5.31S23.23,25,25.71,25a4,4,0,0,0,3.05-1.48l.91,1.05a5.05,5.05,0,0,1-4,1.89C22.38,26.5,19.92,24,19.92,19.71Z" transform="translate(7.6 -6.83)"/><path d="M31.23,21.42c0-3.25,2.12-5.12,4.5-5.12s4.51,1.87,4.51,5.12-2.12,5.08-4.51,5.08S31.23,24.63,31.23,21.42Zm7.31,0c0-2.23-1.13-3.75-2.81-3.75s-2.8,1.52-2.8,3.75,1.13,3.71,2.8,3.71S38.54,23.64,38.54,21.42Z" transform="translate(7.6 -6.83)"/><path d="M42.8,16.54h1.36L44.29,18h.06a4.32,4.32,0,0,1,3-1.65,2.56,2.56,0,0,1,2.68,1.85,4.59,4.59,0,0,1,3.21-1.85c2,0,3,1.32,3,3.8v6.16H54.58V20.32c0-1.82-.57-2.59-1.81-2.59a3.57,3.57,0,0,0-2.44,1.49v7H48.69V20.32c0-1.82-.58-2.59-1.81-2.59a3.61,3.61,0,0,0-2.44,1.49v7H42.8Z" transform="translate(7.6 -6.83)"/><path d="M59.37,16.54h1.36L60.87,18h.06a4.3,4.3,0,0,1,3-1.65,2.58,2.58,0,0,1,2.69,1.85,4.59,4.59,0,0,1,3.2-1.85c2,0,3,1.32,3,3.8v6.16H71.16V20.32c0-1.82-.58-2.59-1.81-2.59a3.55,3.55,0,0,0-2.44,1.49v7H65.26V20.32c0-1.82-.57-2.59-1.81-2.59A3.61,3.61,0,0,0,61,19.22v7H59.37Z" transform="translate(7.6 -6.83)"/><path d="M75.82,22.7V16.54h1.64v5.95c0,1.81.55,2.59,1.84,2.59,1,0,1.68-.5,2.6-1.64v-6.9h1.65v9.72H82.19l-.14-1.52H82a4.12,4.12,0,0,1-3.2,1.76C76.74,26.5,75.82,25.18,75.82,22.7Z" transform="translate(7.6 -6.83)"/><path d="M86.83,16.54h1.36l.13,1.4h.06a4.66,4.66,0,0,1,3.26-1.64c2,0,3,1.32,3,3.8v6.16H93V20.32c0-1.82-.54-2.59-1.83-2.59-1,0-1.68.51-2.66,1.49v7H86.83Z" transform="translate(7.6 -6.83)"/><path d="M97.46,13.48a1.14,1.14,0,0,1,2.27,0,1.14,1.14,0,0,1-2.27,0Zm.3,3.06H99.4v9.72H97.76Z" transform="translate(7.6 -6.83)"/><path d="M102,21.42c0-3.25,2.19-5.12,4.68-5.12a4.08,4.08,0,0,1,2.84,1.14l-.84,1.09a2.8,2.8,0,0,0-1.93-.86c-1.76,0-3,1.52-3,3.75s1.22,3.71,3,3.71a3.51,3.51,0,0,0,2.28-1l.72,1.1a4.74,4.74,0,0,1-3.15,1.23C103.93,26.5,102,24.63,102,21.42Z" transform="translate(7.6 -6.83)"/><path d="M111,23.74c0-2.12,1.83-3.18,6-3.63,0-1.25-.41-2.45-2-2.45a5.33,5.33,0,0,0-2.9,1l-.65-1.13a7.13,7.13,0,0,1,3.82-1.27c2.38,0,3.38,1.58,3.38,4v6h-1.36l-.14-1.16h0a5.18,5.18,0,0,1-3.22,1.4A2.64,2.64,0,0,1,111,23.74Zm6,.15v-2.7c-3.25.39-4.36,1.19-4.36,2.43s.75,1.56,1.71,1.56A4,4,0,0,0,117,23.89Z" transform="translate(7.6 -6.83)"/><path d="M121.69,23.26V17.88h-1.44V16.63l1.52-.09.19-2.73h1.38v2.73H126v1.34h-2.63v5.41c0,1.19.38,1.87,1.5,1.87A3.27,3.27,0,0,0,126,24.9l.32,1.24a5.77,5.77,0,0,1-1.81.36C122.39,26.5,121.69,25.19,121.69,23.26Z" transform="translate(7.6 -6.83)"/><path d="M127.86,13.48a1.14,1.14,0,0,1,2.28,0,1.14,1.14,0,0,1-2.28,0Zm.3,3.06h1.65v9.72h-1.65Z" transform="translate(7.6 -6.83)"/><path d="M132.37,21.42c0-3.25,2.12-5.12,4.5-5.12s4.51,1.87,4.51,5.12-2.12,5.08-4.51,5.08S132.37,24.63,132.37,21.42Zm7.31,0c0-2.23-1.13-3.75-2.81-3.75s-2.8,1.52-2.8,3.75,1.13,3.71,2.8,3.71S139.68,23.64,139.68,21.42Z" transform="translate(7.6 -6.83)"/><path d="M143.94,16.54h1.35l.14,1.4h.06a4.66,4.66,0,0,1,3.26-1.64c2.05,0,3,1.32,3,3.8v6.16h-1.65V20.32c0-1.82-.54-2.59-1.83-2.59-1,0-1.68.51-2.66,1.49v7h-1.64Z" transform="translate(7.6 -6.83)"/><path d="M30.13,45.59c0-1.91,1.64-2.86,5.37-3.26,0-1.13-.38-2.21-1.81-2.21a4.83,4.83,0,0,0-2.61.93l-.58-1a6.45,6.45,0,0,1,3.44-1.14c2.14,0,3,1.41,3,3.59v5.37H35.76l-.13-1h-.05a4.64,4.64,0,0,1-2.89,1.26A2.38,2.38,0,0,1,30.13,45.59Zm5.37.14V43.3c-2.93.35-3.92,1.07-3.92,2.19a1.34,1.34,0,0,0,1.53,1.4A3.59,3.59,0,0,0,35.5,45.73Z" transform="translate(7.6 -6.83)"/><path d="M39.75,39.11H41l.13,1.26h0a4.15,4.15,0,0,1,2.93-1.47c1.84,0,2.67,1.19,2.67,3.42v5.54H45.27V42.51c0-1.63-.49-2.33-1.65-2.33a3.33,3.33,0,0,0-2.39,1.35v6.33H39.75Z" transform="translate(7.6 -6.83)"/><path d="M49,43.5c0-2.84,1.79-4.6,3.79-4.6a3.58,3.58,0,0,1,2.45,1l-.06-1.5V35h1.48V47.86H55.4l-.13-1h-.05a3.87,3.87,0,0,1-2.65,1.25C50.38,48.08,49,46.42,49,43.5Zm6.18,2.14V41.05A3.11,3.11,0,0,0,53,40.14c-1.39,0-2.51,1.35-2.51,3.35s.87,3.34,2.4,3.34A3,3,0,0,0,55.14,45.64Z" transform="translate(7.6 -6.83)"/><path d="M62.62,42c0-3.82,2.25-6.14,5.25-6.14a4.41,4.41,0,0,1,3.25,1.46l-.83,1a3.19,3.19,0,0,0-2.4-1.12c-2.23,0-3.71,1.83-3.71,4.78s1.41,4.83,3.65,4.83a3.53,3.53,0,0,0,2.74-1.33l.83.94a4.55,4.55,0,0,1-3.63,1.71C64.83,48.08,62.62,45.8,62.62,42Z" transform="translate(7.6 -6.83)"/><path d="M72.8,43.5c0-2.92,1.91-4.6,4-4.6s4.06,1.68,4.06,4.6S79,48.08,76.85,48.08,72.8,46.4,72.8,43.5Zm6.58,0c0-2-1-3.37-2.53-3.37s-2.52,1.36-2.52,3.37,1,3.35,2.52,3.35S79.38,45.5,79.38,43.5Z" transform="translate(7.6 -6.83)"/><path d="M83.21,39.11h1.22l.13,1.26h0a4.19,4.19,0,0,1,2.94-1.47c1.84,0,2.67,1.19,2.67,3.42v5.54H88.73V42.51c0-1.63-.49-2.33-1.65-2.33a3.33,3.33,0,0,0-2.39,1.35v6.33H83.21Z" transform="translate(7.6 -6.83)"/><path d="M92.08,46.86l.73-1a4,4,0,0,0,2.58,1c1.15,0,1.72-.62,1.72-1.36,0-.9-1-1.3-2-1.66-1.23-.45-2.61-1-2.61-2.53s1.12-2.48,3-2.48a4.42,4.42,0,0,1,2.72,1l-.71.95a3.26,3.26,0,0,0-2-.78c-1.1,0-1.61.59-1.61,1.25,0,.84,1,1.15,2,1.52,1.26.48,2.66,1,2.66,2.66,0,1.42-1.12,2.6-3.19,2.6A5.23,5.23,0,0,1,92.08,46.86Z" transform="translate(7.6 -6.83)"/><path d="M100.47,44.66V39.11H102v5.36c0,1.63.5,2.32,1.66,2.32.89,0,1.51-.44,2.34-1.47V39.11h1.48v8.75h-1.22l-.13-1.37h0a3.7,3.7,0,0,1-2.88,1.59C101.3,48.08,100.47,46.89,100.47,44.66Z" transform="translate(7.6 -6.83)"/><path d="M110.38,46.11V35h1.48V46.21c0,.46.2.64.41.64a1.19,1.19,0,0,0,.33,0l.2,1.13a2.3,2.3,0,0,1-.85.14C110.84,48.08,110.38,47.37,110.38,46.11Z" transform="translate(7.6 -6.83)"/><path d="M115.23,45.16V40.32h-1.3V39.2l1.37-.09.17-2.45h1.24v2.45h2.37v1.21h-2.37v4.86c0,1.07.35,1.69,1.35,1.69a2.81,2.81,0,0,0,1-.23l.29,1.12a5.49,5.49,0,0,1-1.63.32C115.86,48.08,115.23,46.9,115.23,45.16Z" transform="translate(7.6 -6.83)"/><path d="M120.78,36.36a1,1,0,0,1,2,0,1,1,0,0,1-2,0Zm.28,2.75h1.48v8.75h-1.48Z" transform="translate(7.6 -6.83)"/><path d="M125.49,39.11h1.22l.13,1.26h0a4.15,4.15,0,0,1,2.93-1.47c1.85,0,2.67,1.19,2.67,3.42v5.54H131V42.51c0-1.63-.49-2.33-1.65-2.33A3.33,3.33,0,0,0,127,41.53v6.33h-1.48Z" transform="translate(7.6 -6.83)"/><path d="M134.66,49.54a2.45,2.45,0,0,1,1.29-2v-.08a1.6,1.6,0,0,1-.79-1.43,2.06,2.06,0,0,1,1-1.62v-.08A3,3,0,0,1,135,42a3.11,3.11,0,0,1,3.29-3.11,3.53,3.53,0,0,1,1.23.21h3.06v1.14h-1.8a2.55,2.55,0,0,1,.71,1.8,3,3,0,0,1-3.2,3,3.17,3.17,0,0,1-1.31-.3,1.3,1.3,0,0,0-.55,1c0,.56.36,1,1.53,1h1.7c2,0,3.06.64,3.06,2.09,0,1.63-1.72,3-4.42,3C136.14,51.89,134.66,51.05,134.66,49.54Zm6.6-.45c0-.81-.61-1.09-1.76-1.09H138a5.25,5.25,0,0,1-1.14-.13,1.8,1.8,0,0,0-.89,1.47c0,.94.94,1.53,2.53,1.53S141.26,50,141.26,49.09ZM140.14,42a1.87,1.87,0,1,0-3.72,0,1.87,1.87,0,1,0,3.72,0Z" transform="translate(7.6 -6.83)"/><path d="M37.78,209.67H42l-.1.44H38.2l-.61,3h3.09l-.1.45H37.51l-.72,3.52h3.77l-.1.45H36.2Z" transform="translate(7.6 -6.83)"/><path d="M43.34,211.82h.42l-.13.92h0a3.37,3.37,0,0,1,2-1.07,1.24,1.24,0,0,1,1.37,1.41,3.17,3.17,0,0,1-.09.78l-.75,3.72h-.49l.74-3.66a3.26,3.26,0,0,0,.09-.74c0-.7-.3-1.06-1-1.06a3.37,3.37,0,0,0-2,1.21l-.85,4.25h-.49Z" transform="translate(7.6 -6.83)"/><path d="M47.9,216.65l.35-.26a2,2,0,0,0,1.63.91,1.38,1.38,0,0,0,1.47-1.21c0-.46-.2-.76-1.09-1.24s-1.41-.95-1.41-1.55a1.7,1.7,0,0,1,1.82-1.63,2.12,2.12,0,0,1,1.58.7l-.32.32a1.68,1.68,0,0,0-1.28-.6,1.25,1.25,0,0,0-1.32,1.13c0,.55.51.84,1.07,1.15,1.24.68,1.44,1.12,1.44,1.64a1.8,1.8,0,0,1-2,1.71A2.44,2.44,0,0,1,47.9,216.65Z" transform="translate(7.6 -6.83)"/><path d="M57.23,217.58h-.42l.13-1h0a3.38,3.38,0,0,1-2,1.09,1.24,1.24,0,0,1-1.37-1.41,3.33,3.33,0,0,1,.1-.78l.74-3.71h.5l-.74,3.65a3.36,3.36,0,0,0-.1.74c0,.7.3,1.07,1,1.07a3.33,3.33,0,0,0,2-1.22l.86-4.24h.49Z" transform="translate(7.6 -6.83)"/><path d="M60.63,211.82H61l-.18,1.09h0a2.37,2.37,0,0,1,1.8-1.24,1.41,1.41,0,0,1,.52.1l-.19.47a1,1,0,0,0-.45-.1c-.61,0-1.35.6-1.87,1.62L60,217.58h-.5Z" transform="translate(7.6 -6.83)"/><path d="M66.27,211.67c1.25,0,1.73.86,1.73,2a3.55,3.55,0,0,1-.16,1h-4c-.31,1.81.58,2.57,1.73,2.57a2.56,2.56,0,0,0,1.43-.55l.22.36a3,3,0,0,1-1.73.62,2.09,2.09,0,0,1-2.19-2.38C63.28,213.16,64.79,211.67,66.27,211.67Zm1.2,2.66a3.11,3.11,0,0,0,.07-.69c0-.78-.34-1.54-1.32-1.54a2.67,2.67,0,0,0-2.32,2.23Z" transform="translate(7.6 -6.83)"/><path d="M71.4,215.44c0-2.23,1.55-3.77,3.1-3.77a1.84,1.84,0,0,1,1.46.7l-.33.33a1.35,1.35,0,0,0-1.17-.59c-1.29,0-2.57,1.5-2.57,3.26,0,1.25.53,1.92,1.6,1.92a2.45,2.45,0,0,0,1.49-.6l.25.35a2.86,2.86,0,0,1-1.8.68C72.19,217.72,71.4,216.89,71.4,215.44Z" transform="translate(7.6 -6.83)"/><path d="M76.49,215.44c0-2.15,1.47-3.77,3-3.77,1.18,0,2,.84,2,2.28,0,2.16-1.47,3.77-3,3.77C77.26,217.72,76.49,216.88,76.49,215.44ZM81,214c0-1.25-.54-1.91-1.49-1.91-1.24,0-2.5,1.49-2.5,3.26,0,1.25.54,1.92,1.49,1.92C79.71,217.29,81,215.79,81,214Z" transform="translate(7.6 -6.83)"/><path d="M83.75,211.82h.41l-.13.92h0a3.37,3.37,0,0,1,2-1.07,1.24,1.24,0,0,1,1.38,1.41,3.21,3.21,0,0,1-.1.78l-.74,3.72h-.5l.74-3.66a3.36,3.36,0,0,0,.1-.74c0-.7-.3-1.06-1-1.06a3.34,3.34,0,0,0-2,1.21l-.85,4.25h-.5Z" transform="translate(7.6 -6.83)"/><path d="M89.27,211.87l.77-.05.26-1.32c.24-1.14.83-1.7,1.59-1.7a1.57,1.57,0,0,1,.89.27l-.21.38a1.17,1.17,0,0,0-.68-.21c-.59,0-1,.57-1.1,1.26l-.26,1.32h1.26l-.09.43H90.43l-1.06,5.33h-.49l1.06-5.33H89.2Z" transform="translate(7.6 -6.83)"/><path d="M93.13,211.82h.49l-1.16,5.76H92Zm.15-1.79a.53.53,0,0,1,.51-.54.39.39,0,0,1,.4.41.52.52,0,0,1-.5.52A.39.39,0,0,1,93.28,210Z" transform="translate(7.6 -6.83)"/><path d="M99.63,211.45l.51-2.5h.49l-1.74,8.63h-.42l.13-.92h0a3,3,0,0,1-2.13,1.06c-1,0-1.68-.73-1.68-2.08,0-2.21,1.54-4,3.13-4a1.62,1.62,0,0,1,1.47.93h.05ZM98.7,216l.6-2.89c-.43-.75-.89-1-1.43-1-1.36,0-2.61,1.71-2.61,3.44,0,1.17.49,1.73,1.28,1.73A3,3,0,0,0,98.7,216Z" transform="translate(7.6 -6.83)"/><path d="M104.16,211.67c1.25,0,1.73.86,1.73,2a3.55,3.55,0,0,1-.16,1h-4c-.31,1.81.58,2.57,1.73,2.57a2.62,2.62,0,0,0,1.44-.55l.21.36a3,3,0,0,1-1.73.62,2.1,2.1,0,0,1-2.19-2.38C101.17,213.16,102.68,211.67,104.16,211.67Zm1.2,2.66a3.11,3.11,0,0,0,.07-.69c0-.78-.34-1.54-1.31-1.54a2.67,2.67,0,0,0-2.33,2.23Z" transform="translate(7.6 -6.83)"/><path d="M108.05,211.82h.42l-.13.92h0a3.37,3.37,0,0,1,2-1.07,1.24,1.24,0,0,1,1.37,1.41,3.17,3.17,0,0,1-.09.78l-.75,3.72h-.49l.74-3.66a3.26,3.26,0,0,0,.09-.74c0-.7-.3-1.06-1-1.06a3.37,3.37,0,0,0-2.05,1.21l-.85,4.25h-.49Z" transform="translate(7.6 -6.83)"/><path d="M113.13,215.44a3.51,3.51,0,0,1,3.1-3.77,1.83,1.83,0,0,1,1.46.7l-.32.33a1.35,1.35,0,0,0-1.17-.59c-1.29,0-2.57,1.5-2.57,3.26,0,1.25.53,1.92,1.6,1.92a2.43,2.43,0,0,0,1.48-.6l.26.35a2.9,2.9,0,0,1-1.8.68A2,2,0,0,1,113.13,215.44Z" transform="translate(7.6 -6.83)"/><path d="M121.2,211.67c1.25,0,1.73.86,1.73,2a3.55,3.55,0,0,1-.16,1h-4c-.31,1.81.58,2.57,1.73,2.57a2.62,2.62,0,0,0,1.44-.55l.21.36a3,3,0,0,1-1.73.62,2.1,2.1,0,0,1-2.19-2.38C118.21,213.16,119.72,211.67,121.2,211.67Zm1.2,2.66a3.11,3.11,0,0,0,.07-.69c0-.78-.34-1.54-1.31-1.54a2.67,2.67,0,0,0-2.33,2.23Z" transform="translate(7.6 -6.83)"/><path d="M28.54,226.22H29L27.88,232h-.49Zm.16-1.79a.53.53,0,0,1,.5-.54.39.39,0,0,1,.41.41.52.52,0,0,1-.51.52A.39.39,0,0,1,28.7,224.43Z" transform="translate(7.6 -6.83)"/><path d="M31.28,226.22h.42l-.13.91h0a3.45,3.45,0,0,1,2.06-1.06A1.24,1.24,0,0,1,35,227.48a3.17,3.17,0,0,1-.09.78L34.2,232h-.49l.74-3.66a3.26,3.26,0,0,0,.09-.74c0-.7-.3-1.06-1-1.06a3.37,3.37,0,0,0-2.05,1.21L30.62,232h-.49Z" transform="translate(7.6 -6.83)"/><path d="M43.63,225.85l.51-2.5h.49L42.89,232h-.42l.13-.92h-.05a3,3,0,0,1-2.12,1.06c-1,0-1.68-.73-1.68-2.08,0-2.21,1.54-4,3.13-4a1.63,1.63,0,0,1,1.47.93h0Zm-.93,4.59.6-2.89c-.43-.75-.89-1-1.43-1-1.36,0-2.62,1.71-2.62,3.44,0,1.17.5,1.73,1.29,1.73A3,3,0,0,0,42.7,230.44Z" transform="translate(7.6 -6.83)"/><path d="M46.3,226.22h.49L45.64,232h-.5Zm.16-1.79a.52.52,0,0,1,.5-.54.39.39,0,0,1,.4.41.51.51,0,0,1-.5.52A.39.39,0,0,1,46.46,224.43Z" transform="translate(7.6 -6.83)"/><path d="M47.39,231.05l.34-.26a2,2,0,0,0,1.63.91,1.38,1.38,0,0,0,1.47-1.21c0-.46-.2-.76-1.09-1.24s-1.41-.95-1.41-1.55a1.7,1.7,0,0,1,1.82-1.63,2.12,2.12,0,0,1,1.58.7l-.31.32a1.71,1.71,0,0,0-1.29-.6,1.25,1.25,0,0,0-1.32,1.13c0,.55.51.84,1.07,1.15,1.25.68,1.44,1.12,1.44,1.64a1.79,1.79,0,0,1-2,1.71A2.4,2.4,0,0,1,47.39,231.05Z" transform="translate(7.6 -6.83)"/><path d="M52.67,229.84c0-2.23,1.55-3.77,3.1-3.77a1.84,1.84,0,0,1,1.46.7l-.33.33a1.35,1.35,0,0,0-1.17-.59c-1.29,0-2.57,1.5-2.57,3.26,0,1.25.53,1.92,1.6,1.92a2.45,2.45,0,0,0,1.49-.6l.25.36a2.91,2.91,0,0,1-1.8.67C53.46,232.12,52.67,231.29,52.67,229.84Z" transform="translate(7.6 -6.83)"/><path d="M57.76,229.84c0-2.15,1.47-3.77,3-3.77,1.18,0,1.94.84,1.94,2.28,0,2.15-1.47,3.77-3,3.77C58.53,232.12,57.76,231.28,57.76,229.84Zm4.49-1.42c0-1.25-.54-1.91-1.49-1.91-1.24,0-2.5,1.49-2.5,3.26,0,1.25.54,1.92,1.49,1.92C61,231.69,62.25,230.19,62.25,228.42Z" transform="translate(7.6 -6.83)"/><path d="M64,226.22h.49l.55,3.64c.09.55.16,1.15.24,1.69h.05c.29-.56.59-1.13.9-1.69l2-3.64h.51L65.58,232H65Z" transform="translate(7.6 -6.83)"/><path d="M72,226.07c1.25,0,1.73.86,1.73,2a3.23,3.23,0,0,1-.16,1h-4c-.32,1.81.57,2.57,1.72,2.57a2.59,2.59,0,0,0,1.44-.55l.22.36a3.08,3.08,0,0,1-1.74.62A2.1,2.1,0,0,1,69,229.74C69,227.56,70.47,226.07,72,226.07Zm1.21,2.66a3.84,3.84,0,0,0,.07-.69c0-.78-.34-1.54-1.32-1.54a2.67,2.67,0,0,0-2.33,2.23Z" transform="translate(7.6 -6.83)"/><path d="M75.84,226.22h.42l-.18,1.08h0a2.36,2.36,0,0,1,1.8-1.23,1.49,1.49,0,0,1,.52.1l-.19.47a1,1,0,0,0-.45-.1c-.62,0-1.35.59-1.87,1.62L75.18,232h-.49Z" transform="translate(7.6 -6.83)"/><path d="M79.75,226.22h.49L79.09,232h-.5Zm.15-1.79a.53.53,0,0,1,.51-.54.39.39,0,0,1,.4.41.51.51,0,0,1-.5.52A.39.39,0,0,1,79.9,224.43Z" transform="translate(7.6 -6.83)"/><path d="M84.34,226.07c1.25,0,1.74.86,1.74,2a3.19,3.19,0,0,1-.17,1h-4c-.31,1.81.57,2.57,1.72,2.57a2.59,2.59,0,0,0,1.44-.55l.22.36a3.08,3.08,0,0,1-1.74.62,2.1,2.1,0,0,1-2.19-2.38A3.41,3.41,0,0,1,84.34,226.07Zm1.21,2.66a3.84,3.84,0,0,0,.07-.69c0-.78-.34-1.54-1.32-1.54A2.65,2.65,0,0,0,82,228.73Z" transform="translate(7.6 -6.83)"/><path d="M86.59,231.05l.34-.26a2,2,0,0,0,1.64.91A1.39,1.39,0,0,0,90,230.49c0-.46-.2-.76-1.1-1.24s-1.41-.95-1.41-1.55a1.7,1.7,0,0,1,1.82-1.63,2.16,2.16,0,0,1,1.59.7l-.32.32a1.71,1.71,0,0,0-1.29-.6A1.25,1.25,0,0,0,88,227.62c0,.55.51.84,1.07,1.15,1.25.68,1.44,1.12,1.44,1.64a1.79,1.79,0,0,1-2,1.71A2.42,2.42,0,0,1,86.59,231.05Z" transform="translate(7.6 -6.83)"/><path d="M94.6,231a3.58,3.58,0,0,1,.05-.58l.78-3.75h-.9l.07-.38.93-.05.4-1.65h.42L96,226.22h1.55l-.09.43H95.92l-.78,3.78a3.27,3.27,0,0,0,0,.45c0,.53.19.81.81.81a1.48,1.48,0,0,0,.69-.21l.14.38a2,2,0,0,1-.93.26A1.06,1.06,0,0,1,94.6,231Z" transform="translate(7.6 -6.83)"/><path d="M99.62,223.35h.5l-.65,3.19-.16.6h0a3.49,3.49,0,0,1,2.08-1.07,1.24,1.24,0,0,1,1.37,1.41,3.17,3.17,0,0,1-.09.78L102,232h-.5l.74-3.66a3.36,3.36,0,0,0,.1-.74c0-.7-.3-1.06-1-1.06a3.35,3.35,0,0,0-2,1.21L98.39,232H97.9Z" transform="translate(7.6 -6.83)"/><path d="M105.19,226.22h.42l-.18,1.08h0a2.38,2.38,0,0,1,1.8-1.23,1.45,1.45,0,0,1,.52.1l-.19.47a1,1,0,0,0-.45-.1c-.61,0-1.35.59-1.87,1.62l-.75,3.82H104Z" transform="translate(7.6 -6.83)"/><path d="M107.87,229.84c0-2.15,1.47-3.77,3-3.77,1.18,0,1.94.84,1.94,2.28,0,2.15-1.47,3.77-3,3.77C108.63,232.12,107.87,231.28,107.87,229.84Zm4.48-1.42c0-1.25-.54-1.91-1.49-1.91-1.23,0-2.5,1.49-2.5,3.26,0,1.25.54,1.92,1.49,1.92C111.09,231.69,112.35,230.19,112.35,228.42Z" transform="translate(7.6 -6.83)"/><path d="M118,232h-.41l.13-.94h0a3.44,3.44,0,0,1-2,1.08,1.24,1.24,0,0,1-1.37-1.41,3.22,3.22,0,0,1,.09-.78l.75-3.71h.49l-.74,3.65a3.26,3.26,0,0,0-.09.74c0,.7.3,1.07,1,1.07a3.38,3.38,0,0,0,2-1.22l.85-4.24h.49Z" transform="translate(7.6 -6.83)"/><path d="M119.84,234l.27-.36a2.54,2.54,0,0,0,1.71.73c1.12,0,1.76-.81,2-2l.29-1.35A3.11,3.11,0,0,1,122,232c-1,0-1.67-.71-1.67-2,0-2.13,1.53-3.88,3.06-3.88a1.66,1.66,0,0,1,1.48.94h0l.22-.79h.42l-1.26,6.25a2.5,2.5,0,0,1-2.49,2.28A2.94,2.94,0,0,1,119.84,234Zm4.36-3.56.59-2.84c-.43-.75-.88-1-1.42-1-1.3,0-2.55,1.7-2.55,3.35,0,1.13.48,1.7,1.26,1.7A3.23,3.23,0,0,0,124.2,230.39Z" transform="translate(7.6 -6.83)"/><path d="M128.35,223.35h.5l-.65,3.19-.16.6h.05a3.49,3.49,0,0,1,2.08-1.07,1.24,1.24,0,0,1,1.37,1.41,3.17,3.17,0,0,1-.09.78l-.74,3.72h-.5l.74-3.66a3.36,3.36,0,0,0,.1-.74c0-.7-.3-1.06-1-1.06a3.35,3.35,0,0,0-2,1.21l-.86,4.25h-.49Z" transform="translate(7.6 -6.83)"/><path d="M22.69,240.62h.49L22,246.38h-.5Zm.15-1.79a.53.53,0,0,1,.51-.54.39.39,0,0,1,.4.41.51.51,0,0,1-.5.52A.39.39,0,0,1,22.84,238.83Z" transform="translate(7.6 -6.83)"/><path d="M25.42,240.62h.42l-.13.92h.05a3.37,3.37,0,0,1,2-1.07,1.24,1.24,0,0,1,1.38,1.41,3.21,3.21,0,0,1-.1.78l-.74,3.72h-.5l.74-3.66a3.36,3.36,0,0,0,.1-.74c0-.7-.3-1.06-1-1.06a3.34,3.34,0,0,0-2.05,1.21l-.85,4.25h-.5Z" transform="translate(7.6 -6.83)"/><path d="M30.87,245.38a5.22,5.22,0,0,1,.05-.58L31.7,241h-.89l.07-.37.93,0L32.2,239h.42l-.33,1.65h1.56l-.1.42H32.19l-.77,3.79a2.22,2.22,0,0,0-.05.45c0,.53.19.81.81.81a1.41,1.41,0,0,0,.69-.21l.15.37a1.93,1.93,0,0,1-.93.27A1.06,1.06,0,0,1,30.87,245.38Z" transform="translate(7.6 -6.83)"/><path d="M37.07,240.47c1.25,0,1.73.86,1.73,2a3.55,3.55,0,0,1-.16,1h-4c-.31,1.81.58,2.57,1.72,2.57a2.57,2.57,0,0,0,1.44-.55l.22.36a3,3,0,0,1-1.73.62,2.09,2.09,0,0,1-2.19-2.38C34.08,242,35.59,240.47,37.07,240.47Zm1.2,2.66a3.11,3.11,0,0,0,.07-.69c0-.78-.34-1.54-1.32-1.54a2.67,2.67,0,0,0-2.32,2.23Z" transform="translate(7.6 -6.83)"/><path d="M41,240.62h.42l-.13.92h0a3.42,3.42,0,0,1,2.06-1.07,1.24,1.24,0,0,1,1.37,1.41,3.17,3.17,0,0,1-.09.78l-.75,3.72h-.49l.74-3.66a3.26,3.26,0,0,0,.09-.74c0-.7-.3-1.06-1-1.06a3.37,3.37,0,0,0-2.05,1.21l-.85,4.25h-.49Z" transform="translate(7.6 -6.83)"/><path d="M45.52,245.45l.35-.26a2,2,0,0,0,1.63.91A1.39,1.39,0,0,0,49,244.89c0-.46-.2-.76-1.09-1.24s-1.41-1-1.41-1.55a1.7,1.7,0,0,1,1.82-1.63,2.14,2.14,0,0,1,1.58.7l-.32.32a1.71,1.71,0,0,0-1.29-.6A1.24,1.24,0,0,0,47,242c0,.55.5.84,1.07,1.15,1.24.68,1.43,1.12,1.43,1.64a1.79,1.79,0,0,1-2,1.71A2.44,2.44,0,0,1,45.52,245.45Z" transform="translate(7.6 -6.83)"/><path d="M51.94,240.62h.49l-1.15,5.76h-.5Zm.15-1.79a.53.53,0,0,1,.51-.54.39.39,0,0,1,.4.41.51.51,0,0,1-.5.52A.39.39,0,0,1,52.09,238.83Z" transform="translate(7.6 -6.83)"/><path d="M53.73,240.62h.5l.55,3.64c.09.55.15,1.16.24,1.69h0c.28-.56.59-1.13.89-1.69l2-3.64h.51l-3.15,5.76h-.63Z" transform="translate(7.6 -6.83)"/><path d="M61.65,240.47c1.24,0,1.73.86,1.73,2a3.55,3.55,0,0,1-.16,1h-4c-.31,1.81.57,2.57,1.72,2.57a2.57,2.57,0,0,0,1.44-.55l.22.36a3.07,3.07,0,0,1-1.73.62,2.1,2.1,0,0,1-2.2-2.38A3.41,3.41,0,0,1,61.65,240.47Zm1.2,2.66a3.11,3.11,0,0,0,.07-.69c0-.78-.34-1.54-1.32-1.54a2.66,2.66,0,0,0-2.32,2.23Z" transform="translate(7.6 -6.83)"/><path d="M66.25,245.45l.35-.26a2,2,0,0,0,1.63.91,1.39,1.39,0,0,0,1.47-1.21c0-.46-.2-.76-1.09-1.24s-1.41-1-1.41-1.55A1.7,1.7,0,0,1,69,240.47a2.12,2.12,0,0,1,1.58.7l-.32.32a1.7,1.7,0,0,0-1.28-.6A1.25,1.25,0,0,0,67.68,242c0,.55.51.84,1.07,1.15,1.24.68,1.44,1.12,1.44,1.64a1.8,1.8,0,0,1-2,1.71A2.44,2.44,0,0,1,66.25,245.45Z" transform="translate(7.6 -6.83)"/><path d="M71.9,245.38a3.58,3.58,0,0,1,0-.58l.78-3.76h-.9l.08-.37.92,0,.4-1.65h.42l-.33,1.65h1.56l-.1.42H73.22l-.78,3.79a3.27,3.27,0,0,0,0,.45c0,.53.19.81.81.81a1.48,1.48,0,0,0,.69-.21l.14.37a1.93,1.93,0,0,1-.93.27A1.06,1.06,0,0,1,71.9,245.38Z" transform="translate(7.6 -6.83)"/><path d="M75.13,244.44c0-2.21,1.53-4,3.12-4a1.66,1.66,0,0,1,1.49.94h0l.22-.79h.42l-1.16,5.76h-.42l.13-.92h0a3,3,0,0,1-2.12,1.06C75.79,246.52,75.13,245.79,75.13,244.44Zm3.94.4.6-2.89c-.42-.75-.89-1-1.42-1-1.37,0-2.62,1.71-2.62,3.44,0,1.17.49,1.73,1.28,1.73A3,3,0,0,0,79.07,244.84Z" transform="translate(7.6 -6.83)"/><path d="M81.89,245.38a5.22,5.22,0,0,1,0-.58l.78-3.76h-.89l.07-.37.93,0,.4-1.65h.42l-.34,1.65h1.56l-.1.42H83.22l-.78,3.79a2.22,2.22,0,0,0,0,.45c0,.53.19.81.81.81a1.41,1.41,0,0,0,.69-.21l.15.37a1.93,1.93,0,0,1-.93.27A1.06,1.06,0,0,1,81.89,245.38Z" transform="translate(7.6 -6.83)"/><path d="M86.35,240.62h.49l-1.15,5.76h-.5Zm.16-1.79a.52.52,0,0,1,.5-.54.39.39,0,0,1,.4.41.51.51,0,0,1-.5.52A.39.39,0,0,1,86.51,238.83Z" transform="translate(7.6 -6.83)"/><path d="M87.44,245.45l.34-.26a2,2,0,0,0,1.63.91,1.39,1.39,0,0,0,1.48-1.21c0-.46-.21-.76-1.1-1.24s-1.41-1-1.41-1.55a1.7,1.7,0,0,1,1.82-1.63,2.12,2.12,0,0,1,1.58.7l-.31.32a1.71,1.71,0,0,0-1.29-.6A1.25,1.25,0,0,0,88.86,242c0,.55.51.84,1.07,1.15,1.25.68,1.44,1.12,1.44,1.64a1.8,1.8,0,0,1-2,1.71A2.4,2.4,0,0,1,87.44,245.45Z" transform="translate(7.6 -6.83)"/><path d="M93.08,245.38a5.22,5.22,0,0,1,0-.58l.78-3.76H93l.07-.37.93,0,.39-1.65h.42l-.33,1.65h1.56L96,241H94.4l-.78,3.79a3.27,3.27,0,0,0,0,.45c0,.53.19.81.81.81a1.41,1.41,0,0,0,.69-.21l.14.37a1.85,1.85,0,0,1-.92.27A1.06,1.06,0,0,1,93.08,245.38Z" transform="translate(7.6 -6.83)"/><path d="M97.54,240.62H98l-1.15,5.76h-.5Zm.15-1.79a.53.53,0,0,1,.51-.54.39.39,0,0,1,.4.41.51.51,0,0,1-.5.52A.4.4,0,0,1,97.69,238.83Z" transform="translate(7.6 -6.83)"/><path d="M99.14,244.24a3.51,3.51,0,0,1,3.1-3.77,1.83,1.83,0,0,1,1.46.7l-.32.33a1.35,1.35,0,0,0-1.17-.59c-1.29,0-2.57,1.5-2.57,3.26,0,1.25.53,1.91,1.6,1.91a2.44,2.44,0,0,0,1.48-.59l.26.35a2.91,2.91,0,0,1-1.81.68A2,2,0,0,1,99.14,244.24Z" transform="translate(7.6 -6.83)"/><path d="M104.24,244.44c0-2.21,1.54-4,3.13-4a1.65,1.65,0,0,1,1.48.94h.05l.22-.79h.41l-1.16,5.76H108l.13-.92h0a3,3,0,0,1-2.12,1.06C104.91,246.52,104.24,245.79,104.24,244.44Zm3.94.4.6-2.89c-.42-.75-.88-1-1.42-1-1.37,0-2.62,1.71-2.62,3.44,0,1.17.5,1.73,1.29,1.73A2.93,2.93,0,0,0,108.18,244.84Z" transform="translate(7.6 -6.83)"/><path d="M110.72,246a1.91,1.91,0,0,1,0-.36l1.57-7.89h.5l-1.58,7.92a1.22,1.22,0,0,0,0,.23c0,.11.05.18.17.18a.44.44,0,0,0,.19,0l0,.4a1,1,0,0,1-.4.08A.48.48,0,0,1,110.72,246Z" transform="translate(7.6 -6.83)"/><path d="M115.91,244.44c0-2.21,1.54-4,3.13-4a1.65,1.65,0,0,1,1.48.94h0l.22-.79h.41L120,246.38h-.41l.13-.92h-.05a3,3,0,0,1-2.12,1.06C116.58,246.52,115.91,245.79,115.91,244.44Zm4,.4.6-2.89c-.43-.75-.89-1-1.43-1-1.36,0-2.62,1.71-2.62,3.44,0,1.17.5,1.73,1.29,1.73A3,3,0,0,0,119.86,244.84Z" transform="translate(7.6 -6.83)"/><path d="M123.44,240.62h.42l-.13.92h0a3.37,3.37,0,0,1,2-1.07,1.24,1.24,0,0,1,1.38,1.41,3.21,3.21,0,0,1-.1.78l-.74,3.72h-.5l.74-3.66a3.36,3.36,0,0,0,.1-.74c0-.7-.3-1.06-1-1.06a3.34,3.34,0,0,0-2,1.21l-.86,4.25h-.49Z" transform="translate(7.6 -6.83)"/><path d="M128.55,244.44c0-2.21,1.54-4,3.13-4a1.65,1.65,0,0,1,1.48.94h.05l.22-.79h.41l-1.16,5.76h-.41l.13-.92h-.05a3,3,0,0,1-2.12,1.06C129.22,246.52,128.55,245.79,128.55,244.44Zm3.94.4.6-2.89c-.42-.75-.88-1-1.42-1-1.37,0-2.62,1.71-2.62,3.44,0,1.17.5,1.73,1.29,1.73A3,3,0,0,0,132.49,244.84Z" transform="translate(7.6 -6.83)"/><path d="M135,246a2.06,2.06,0,0,1,.06-.36l1.57-7.89h.5l-1.58,7.92a1.22,1.22,0,0,0,0,.23c0,.11,0,.18.17.18a.44.44,0,0,0,.19,0l0,.4a1,1,0,0,1-.4.08A.49.49,0,0,1,135,246Z" transform="translate(7.6 -6.83)"/><path d="M136.39,248.86l.19-.39a.86.86,0,0,0,.41.1c.68,0,1.28-.64,1.76-1.61l.25-.5-1-5.84h.49l.56,3.61c.09.55.18,1.18.25,1.71h0c.28-.55.59-1.14.89-1.71l1.95-3.61h.5l-3.55,6.47C138.67,248,138,249,137,249A1.46,1.46,0,0,1,136.39,248.86Z" transform="translate(7.6 -6.83)"/><path d="M142.44,245.45l.34-.26a2,2,0,0,0,1.64.91,1.39,1.39,0,0,0,1.47-1.21c0-.46-.2-.76-1.1-1.24s-1.41-1-1.41-1.55a1.7,1.7,0,0,1,1.82-1.63,2.16,2.16,0,0,1,1.59.7l-.32.32a1.71,1.71,0,0,0-1.29-.6,1.25,1.25,0,0,0-1.32,1.13c0,.55.51.84,1.07,1.15,1.25.68,1.44,1.12,1.44,1.64a1.8,1.8,0,0,1-2,1.71A2.4,2.4,0,0,1,142.44,245.45Z" transform="translate(7.6 -6.83)"/><path d="M148.85,240.62h.49l-1.15,5.76h-.5Zm.16-1.79a.52.52,0,0,1,.5-.54.39.39,0,0,1,.4.41.51.51,0,0,1-.5.52A.39.39,0,0,1,149,238.83Z" transform="translate(7.6 -6.83)"/><path d="M149.94,245.45l.34-.26a2,2,0,0,0,1.63.91,1.39,1.39,0,0,0,1.48-1.21c0-.46-.21-.76-1.1-1.24s-1.41-1-1.41-1.55a1.7,1.7,0,0,1,1.82-1.63,2.12,2.12,0,0,1,1.58.7l-.31.32a1.71,1.71,0,0,0-1.29-.6,1.25,1.25,0,0,0-1.32,1.13c0,.55.51.84,1.07,1.15,1.25.68,1.44,1.12,1.44,1.64a1.8,1.8,0,0,1-2,1.71A2.4,2.4,0,0,1,149.94,245.45Z" transform="translate(7.6 -6.83)"/><path d="M46.53,159.92h4.11c2.68,0,4.6,1,4.6,3.7s-1.92,3.88-4.6,3.88H48.2v5.55H46.53Zm3.87,6.23c2.05,0,3.17-.83,3.17-2.53s-1.12-2.34-3.17-2.34H48.2v4.87Zm-.09.9,1.31-.87,4,6.87H53.74Z" transform="translate(7.6 -6.83)"/><path d="M56.84,168.21c0-3.25,2.12-5.12,4.51-5.12s4.5,1.87,4.5,5.12-2.12,5.08-4.5,5.08S56.84,171.42,56.84,168.21Zm7.31,0c0-2.23-1.13-3.75-2.8-3.75s-2.81,1.52-2.81,3.75,1.14,3.71,2.81,3.71S64.15,170.43,64.15,168.21Z" transform="translate(7.6 -6.83)"/><path d="M69.85,172.05h0l-.15,1H68.33V158.8H70v3.9l-.06,1.74A5,5,0,0,1,73,163.09c2.51,0,3.86,1.95,3.86,4.95,0,3.32-2,5.25-4.21,5.25A4.36,4.36,0,0,1,69.85,172.05Zm5.29-4c0-2.15-.73-3.59-2.56-3.59A4,4,0,0,0,70,165.8v5.1a3.72,3.72,0,0,0,2.36,1C74,171.91,75.14,170.46,75.14,168.06Z" transform="translate(7.6 -6.83)"/><path d="M79.27,169.49v-6.16h1.65v5.95c0,1.81.54,2.59,1.83,2.59,1,0,1.68-.5,2.6-1.64v-6.9H87v9.72H85.64l-.14-1.52h0a4.16,4.16,0,0,1-3.21,1.76C80.19,173.29,79.27,172,79.27,169.49Z" transform="translate(7.6 -6.83)"/><path d="M89.2,171.94l.81-1.08A4.39,4.39,0,0,0,92.88,172c1.28,0,1.91-.68,1.91-1.51,0-1-1.15-1.44-2.22-1.84-1.36-.5-2.9-1.17-2.9-2.81s1.25-2.76,3.35-2.76a5,5,0,0,1,3,1.09l-.79,1.06a3.64,3.64,0,0,0-2.22-.87c-1.22,0-1.79.66-1.79,1.4,0,.92,1.06,1.27,2.16,1.68,1.4.53,3,1.1,3,3,0,1.58-1.25,2.89-3.54,2.89A5.81,5.81,0,0,1,89.2,171.94Z" transform="translate(7.6 -6.83)"/><path d="M98.55,170.05v-5.38H97.1v-1.25l1.52-.09.2-2.73h1.37v2.73h2.64v1.34h-2.64v5.41c0,1.19.39,1.87,1.51,1.87a3.33,3.33,0,0,0,1.11-.26l.31,1.24a5.65,5.65,0,0,1-1.8.36C99.25,173.29,98.55,172,98.55,170.05Z" transform="translate(7.6 -6.83)"/><path d="M37.3,195.35l1-1.15a5.15,5.15,0,0,0,3.63,1.63c1.72,0,2.74-.86,2.74-2.14s-1-1.77-2.19-2.31l-1.88-.83a3.69,3.69,0,0,1-2.66-3.38c0-2,1.74-3.48,4.13-3.48a5.44,5.44,0,0,1,3.87,1.62l-.89,1.07a4.23,4.23,0,0,0-3-1.23c-1.47,0-2.45.75-2.45,1.92s1.15,1.74,2.18,2.17l1.87.81c1.52.66,2.7,1.56,2.7,3.51s-1.71,3.73-4.47,3.73A6.32,6.32,0,0,1,37.3,195.35Z" transform="translate(7.6 -6.83)"/><path d="M48.58,194.05v-5.38H47.14v-1.25l1.52-.09.2-2.73h1.37v2.73h2.63v1.34H50.23v5.41c0,1.19.38,1.87,1.5,1.87a3.22,3.22,0,0,0,1.11-.26l.32,1.24a5.76,5.76,0,0,1-1.8.36C49.29,197.29,48.58,196,48.58,194.05Z" transform="translate(7.6 -6.83)"/><path d="M54,194.53c0-2.12,1.82-3.18,6-3.63,0-1.25-.42-2.45-2-2.45a5.36,5.36,0,0,0-2.9,1l-.64-1.13a7.1,7.1,0,0,1,3.82-1.27c2.37,0,3.37,1.58,3.37,4v6H60.29l-.13-1.16H60.1a5.18,5.18,0,0,1-3.22,1.4A2.64,2.64,0,0,1,54,194.53Zm6,.15V192c-3.26.39-4.36,1.19-4.36,2.43a1.49,1.49,0,0,0,1.7,1.56A4,4,0,0,0,60,194.68Z" transform="translate(7.6 -6.83)"/><path d="M64.73,194.05v-5.38H63.29v-1.25l1.52-.09.2-2.73h1.37v2.73H69v1.34H66.38v5.41c0,1.19.38,1.87,1.5,1.87a3.22,3.22,0,0,0,1.11-.26l.32,1.24a5.77,5.77,0,0,1-1.81.36C65.44,197.29,64.73,196,64.73,194.05Z" transform="translate(7.6 -6.83)"/><path d="M70.91,184.27a1.14,1.14,0,0,1,2.27,0,1.14,1.14,0,0,1-2.27,0Zm.3,3.06h1.64v9.72H71.21Z" transform="translate(7.6 -6.83)"/><path d="M75.05,195.94l.82-1.08A4.37,4.37,0,0,0,78.74,196c1.27,0,1.91-.68,1.91-1.51,0-1-1.15-1.44-2.23-1.84-1.36-.5-2.9-1.17-2.9-2.81s1.25-2.76,3.36-2.76a5,5,0,0,1,3,1.09l-.79,1.06a3.62,3.62,0,0,0-2.21-.87c-1.23,0-1.79.66-1.79,1.4,0,.92,1,1.27,2.15,1.68,1.41.53,3,1.1,3,3,0,1.58-1.25,2.89-3.55,2.89A5.83,5.83,0,0,1,75.05,195.94Z" transform="translate(7.6 -6.83)"/><path d="M84.4,194.05v-5.38H83v-1.25l1.52-.09.2-2.73h1.37v2.73h2.63v1.34H86.05v5.41c0,1.19.38,1.87,1.5,1.87a3.22,3.22,0,0,0,1.11-.26l.32,1.24a5.77,5.77,0,0,1-1.81.36C85.1,197.29,84.4,196,84.4,194.05Z" transform="translate(7.6 -6.83)"/><path d="M90.58,184.27a1.14,1.14,0,0,1,2.27,0,1.14,1.14,0,0,1-2.27,0Zm.3,3.06h1.64v9.72H90.88Z" transform="translate(7.6 -6.83)"/><path d="M95.08,192.21c0-3.25,2.19-5.12,4.68-5.12a4.1,4.1,0,0,1,2.84,1.14l-.84,1.09a2.82,2.82,0,0,0-1.93-.86c-1.76,0-3,1.52-3,3.75s1.22,3.71,3,3.71a3.53,3.53,0,0,0,2.28-1l.71,1.1a4.69,4.69,0,0,1-3.14,1.23C97.05,197.29,95.08,195.42,95.08,192.21Z" transform="translate(7.6 -6.83)"/><path d="M103.84,195.94l.81-1.08a4.37,4.37,0,0,0,2.87,1.15c1.27,0,1.91-.68,1.91-1.51,0-1-1.15-1.44-2.23-1.84-1.36-.5-2.9-1.17-2.9-2.81s1.25-2.76,3.36-2.76a5,5,0,0,1,3,1.09l-.78,1.06a3.64,3.64,0,0,0-2.22-.87c-1.23,0-1.79.66-1.79,1.4,0,.92,1,1.27,2.16,1.68,1.4.53,3,1.1,3,3,0,1.58-1.25,2.89-3.55,2.89A5.78,5.78,0,0,1,103.84,195.94Z" transform="translate(7.6 -6.83)"/><path d="M429.58,212.87h.51l-.92,4.63a4.14,4.14,0,0,0-.12,1c0,1.26.61,2,1.83,2,1,0,1.92-.72,2.29-2.6l1-5h.51l-1,5.08c-.44,2.19-1.57,3-2.83,3a2.11,2.11,0,0,1-2.3-2.35,4.87,4.87,0,0,1,.11-1Z" transform="translate(7.6 -6.83)"/><path d="M436.49,215h.42l-.13.92h.05a3.37,3.37,0,0,1,2.05-1.07,1.24,1.24,0,0,1,1.37,1.41,3.17,3.17,0,0,1-.09.78l-.74,3.72h-.5l.74-3.65a3.52,3.52,0,0,0,.1-.75c0-.7-.3-1.06-1-1.06a3.33,3.33,0,0,0-2,1.21l-.86,4.25h-.49Z" transform="translate(7.6 -6.83)"/><path d="M446.47,214.65l.51-2.5h.49l-1.74,8.63h-.41l.13-.92h-.05a3,3,0,0,1-2.12,1.06c-1,0-1.68-.73-1.68-2.08,0-2.21,1.53-4,3.12-4a1.63,1.63,0,0,1,1.48.93h0Zm-.93,4.59.6-2.89c-.42-.75-.88-1-1.42-1-1.37,0-2.62,1.71-2.62,3.44,0,1.17.5,1.73,1.28,1.73A3,3,0,0,0,445.54,219.24Z" transform="translate(7.6 -6.83)"/><path d="M451,214.87c1.25,0,1.74.86,1.74,2a3.19,3.19,0,0,1-.17,1h-4c-.31,1.81.57,2.58,1.72,2.58a2.61,2.61,0,0,0,1.44-.56l.22.36a3.08,3.08,0,0,1-1.74.62,2.1,2.1,0,0,1-2.19-2.38A3.41,3.41,0,0,1,451,214.87Zm1.21,2.66a3.84,3.84,0,0,0,.07-.69c0-.78-.34-1.54-1.32-1.54a2.65,2.65,0,0,0-2.32,2.23Z" transform="translate(7.6 -6.83)"/><path d="M454.9,215h.41l-.18,1.09h.05a2.37,2.37,0,0,1,1.8-1.24,1.41,1.41,0,0,1,.52.1l-.19.47a1,1,0,0,0-.45-.1c-.61,0-1.35.6-1.87,1.62l-.75,3.82h-.5Z" transform="translate(7.6 -6.83)"/><path d="M457,219.85l.35-.26a1.94,1.94,0,0,0,1.63.91,1.39,1.39,0,0,0,1.47-1.21c0-.46-.2-.76-1.09-1.24s-1.41-1-1.41-1.55a1.69,1.69,0,0,1,1.81-1.63,2.16,2.16,0,0,1,1.59.7l-.32.32a1.71,1.71,0,0,0-1.29-.6,1.24,1.24,0,0,0-1.31,1.13c0,.55.5.84,1.07,1.15,1.24.68,1.43,1.12,1.43,1.64a1.79,1.79,0,0,1-2,1.71A2.42,2.42,0,0,1,457,219.85Z" transform="translate(7.6 -6.83)"/><path d="M462.68,219.78a3.56,3.56,0,0,1,.06-.58l.78-3.75h-.9l.07-.38.93,0,.4-1.65h.42l-.33,1.65h1.55l-.09.43H464l-.78,3.78a3.26,3.26,0,0,0-.05.45c0,.53.2.81.82.81a1.48,1.48,0,0,0,.69-.21l.14.38a2,2,0,0,1-.93.26A1.06,1.06,0,0,1,462.68,219.78Z" transform="translate(7.6 -6.83)"/><path d="M465.91,218.84c0-2.21,1.54-4,3.13-4a1.65,1.65,0,0,1,1.48.94h.05l.22-.79h.41l-1.15,5.76h-.42l.13-.92h-.05a3,3,0,0,1-2.12,1.06C466.58,220.92,465.91,220.19,465.91,218.84Zm3.95.4.6-2.89c-.43-.75-.89-1-1.43-1-1.36,0-2.62,1.71-2.62,3.44,0,1.17.5,1.73,1.29,1.73A3,3,0,0,0,469.86,219.24Z" transform="translate(7.6 -6.83)"/><path d="M473.45,215h.41l-.13.92h0a3.37,3.37,0,0,1,2.05-1.07,1.24,1.24,0,0,1,1.38,1.41,3.21,3.21,0,0,1-.1.78l-.74,3.72h-.5l.74-3.65a3.52,3.52,0,0,0,.1-.75c0-.7-.3-1.06-1-1.06a3.34,3.34,0,0,0-2.05,1.21l-.85,4.25h-.5Z" transform="translate(7.6 -6.83)"/><path d="M483.43,214.65l.5-2.5h.5l-1.75,8.63h-.41l.13-.92h0a3,3,0,0,1-2.12,1.06c-1,0-1.68-.73-1.68-2.08,0-2.21,1.54-4,3.13-4a1.63,1.63,0,0,1,1.47.93h.05Zm-.94,4.59.6-2.89c-.42-.75-.88-1-1.42-1-1.37,0-2.62,1.71-2.62,3.44,0,1.17.5,1.73,1.29,1.73A3,3,0,0,0,482.49,219.24Z" transform="translate(7.6 -6.83)"/><path d="M487.7,219.78a3.58,3.58,0,0,1,.05-.58l.78-3.75h-.9l.07-.38.93,0,.4-1.65h.42l-.33,1.65h1.55l-.09.43H489l-.78,3.78a3.26,3.26,0,0,0-.05.45c0,.53.2.81.82.81a1.48,1.48,0,0,0,.69-.21l.14.38a2,2,0,0,1-.93.26A1.06,1.06,0,0,1,487.7,219.78Z" transform="translate(7.6 -6.83)"/><path d="M492.72,212.15h.49l-.64,3.19-.16.6h0a3.49,3.49,0,0,1,2.08-1.07,1.24,1.24,0,0,1,1.37,1.41,3.17,3.17,0,0,1-.09.78l-.75,3.72h-.49l.74-3.65a3.4,3.4,0,0,0,.09-.75c0-.7-.3-1.06-1-1.06a3.37,3.37,0,0,0-2.05,1.21l-.85,4.25H491Z" transform="translate(7.6 -6.83)"/><path d="M500.15,214.87c1.25,0,1.74.86,1.74,2a3.19,3.19,0,0,1-.17,1h-4c-.31,1.81.57,2.58,1.72,2.58a2.61,2.61,0,0,0,1.44-.56l.22.36a3.08,3.08,0,0,1-1.74.62,2.1,2.1,0,0,1-2.19-2.38A3.41,3.41,0,0,1,500.15,214.87Zm1.21,2.66a3.84,3.84,0,0,0,.07-.69c0-.78-.34-1.54-1.32-1.54a2.65,2.65,0,0,0-2.32,2.23Z" transform="translate(7.6 -6.83)"/><path d="M506.41,215h.42l-.18,1.09h.05a2.34,2.34,0,0,1,1.8-1.24,1.49,1.49,0,0,1,.52.1l-.19.47a1,1,0,0,0-.45-.1c-.62,0-1.35.6-1.87,1.62l-.76,3.82h-.49Z" transform="translate(7.6 -6.83)"/><path d="M510.32,215h.49l-1.16,5.76h-.49Zm.15-1.79a.53.53,0,0,1,.51-.54.39.39,0,0,1,.4.41.52.52,0,0,1-.5.52A.39.39,0,0,1,510.47,213.23Z" transform="translate(7.6 -6.83)"/><path d="M511.4,219.85l.35-.26a1.94,1.94,0,0,0,1.63.91,1.39,1.39,0,0,0,1.47-1.21c0-.46-.2-.76-1.09-1.24s-1.41-1-1.41-1.55a1.7,1.7,0,0,1,1.82-1.63,2.14,2.14,0,0,1,1.58.7l-.32.32a1.71,1.71,0,0,0-1.29-.6,1.24,1.24,0,0,0-1.31,1.13c0,.55.5.84,1.07,1.15,1.24.68,1.43,1.12,1.43,1.64a1.79,1.79,0,0,1-2,1.71A2.44,2.44,0,0,1,511.4,219.85Z" transform="translate(7.6 -6.83)"/><path d="M518.38,212.15h.5l-1.26,6.34h0l3.41-3.47h.6l-2.26,2.34,1.4,3.42h-.52l-1.24-3.1-1.58,1.59-.31,1.51h-.49Z" transform="translate(7.6 -6.83)"/><path d="M521.62,219.85l.35-.26a1.94,1.94,0,0,0,1.63.91,1.39,1.39,0,0,0,1.47-1.21c0-.46-.2-.76-1.09-1.24s-1.41-1-1.41-1.55a1.69,1.69,0,0,1,1.81-1.63,2.16,2.16,0,0,1,1.59.7l-.32.32a1.71,1.71,0,0,0-1.29-.6,1.24,1.24,0,0,0-1.31,1.13c0,.55.5.84,1.07,1.15,1.24.68,1.43,1.12,1.43,1.64a1.79,1.79,0,0,1-2,1.71A2.42,2.42,0,0,1,521.62,219.85Z" transform="translate(7.6 -6.83)"/><path d="M419.58,233c0-2.15,1.47-3.77,3-3.77,1.18,0,1.95.84,1.95,2.28,0,2.16-1.47,3.77-3,3.77C420.35,235.32,419.58,234.48,419.58,233Zm4.49-1.42c0-1.25-.54-1.91-1.49-1.91-1.24,0-2.5,1.49-2.5,3.26,0,1.25.54,1.92,1.49,1.92C422.81,234.89,424.07,233.39,424.07,231.62Z" transform="translate(7.6 -6.83)"/><path d="M426.15,229.47l.77-.05.26-1.32c.24-1.14.83-1.7,1.59-1.7a1.57,1.57,0,0,1,.89.27l-.21.38a1.2,1.2,0,0,0-.68-.22c-.59,0-.95.58-1.1,1.27l-.26,1.32h1.26l-.09.43h-1.27l-1.06,5.33h-.49l1.06-5.33h-.74Z" transform="translate(7.6 -6.83)"/><path d="M430.72,234.25l.35-.26a1.94,1.94,0,0,0,1.63.91,1.39,1.39,0,0,0,1.47-1.21c0-.46-.2-.76-1.09-1.24s-1.41-.95-1.41-1.55a1.69,1.69,0,0,1,1.81-1.63,2.16,2.16,0,0,1,1.59.7l-.32.32a1.71,1.71,0,0,0-1.29-.6,1.24,1.24,0,0,0-1.31,1.13c0,.55.5.84,1.06,1.15,1.25.68,1.44,1.12,1.44,1.64a1.79,1.79,0,0,1-2,1.71A2.42,2.42,0,0,1,430.72,234.25Z" transform="translate(7.6 -6.83)"/><path d="M437.7,226.55h.49l-.64,3.19-.16.6h.05a3.49,3.49,0,0,1,2.08-1.07,1.24,1.24,0,0,1,1.37,1.41,3.17,3.17,0,0,1-.09.78l-.75,3.72h-.49l.74-3.66a3.26,3.26,0,0,0,.09-.74c0-.7-.3-1.06-1-1.06a3.37,3.37,0,0,0-2.05,1.21l-.85,4.25H436Z" transform="translate(7.6 -6.83)"/><path d="M442.17,233.24c0-2.21,1.53-4,3.12-4a1.67,1.67,0,0,1,1.49.94h0l.22-.79h.42l-1.16,5.76h-.42l.13-.92h0a3,3,0,0,1-2.13,1.06C442.83,235.32,442.17,234.59,442.17,233.24Zm3.94.4.6-2.89c-.43-.75-.89-1-1.43-1-1.36,0-2.61,1.71-2.61,3.44,0,1.17.49,1.73,1.28,1.73A3,3,0,0,0,446.11,233.64Z" transform="translate(7.6 -6.83)"/><path d="M449.7,229.42h.41l-.17,1.08h0a2.38,2.38,0,0,1,1.81-1.23,1.4,1.4,0,0,1,.51.1l-.19.47a1,1,0,0,0-.45-.1c-.61,0-1.35.59-1.87,1.62l-.75,3.82h-.5Z" transform="translate(7.6 -6.83)"/><path d="M453.6,229.42h.5l-1.16,5.76h-.49Zm.16-1.79a.52.52,0,0,1,.5-.54.39.39,0,0,1,.41.41.52.52,0,0,1-.51.52A.39.39,0,0,1,453.76,227.63Z" transform="translate(7.6 -6.83)"/><path d="M456.34,229.42h.41l-.13.91h.05a3.45,3.45,0,0,1,2.06-1.06,1.24,1.24,0,0,1,1.37,1.41,3.21,3.21,0,0,1-.1.78l-.74,3.72h-.49l.73-3.66a3.36,3.36,0,0,0,.1-.74c0-.7-.3-1.06-1-1.06a3.34,3.34,0,0,0-2.05,1.21l-.85,4.25h-.5Z" transform="translate(7.6 -6.83)"/><path d="M461,237.15l.27-.36a2.54,2.54,0,0,0,1.71.73c1.13,0,1.76-.81,2-2l.29-1.35a3.11,3.11,0,0,1-2.14,1.05c-1,0-1.67-.71-1.67-2,0-2.13,1.53-3.88,3.06-3.88a1.66,1.66,0,0,1,1.48.94h0l.22-.79h.41l-1.26,6.25a2.5,2.5,0,0,1-2.49,2.28A2.94,2.94,0,0,1,461,237.15Zm4.36-3.56.59-2.84c-.43-.75-.88-1-1.42-1-1.3,0-2.54,1.7-2.54,3.35,0,1.13.47,1.7,1.26,1.7A3.23,3.23,0,0,0,465.32,233.59Z" transform="translate(7.6 -6.83)"/><path d="M475,229.05l.51-2.5H476l-1.74,8.63h-.42l.13-.92H474a3,3,0,0,1-2.12,1.06c-1,0-1.68-.73-1.68-2.08,0-2.21,1.54-4,3.13-4a1.63,1.63,0,0,1,1.47.93h.05Zm-.93,4.59.6-2.89c-.43-.75-.89-1-1.43-1-1.36,0-2.62,1.71-2.62,3.44,0,1.17.5,1.73,1.29,1.73A3,3,0,0,0,474.11,233.64Z" transform="translate(7.6 -6.83)"/><path d="M476.6,233.24c0-2.21,1.53-4,3.13-4a1.65,1.65,0,0,1,1.48.94h.05l.22-.79h.41l-1.16,5.76h-.41l.13-.92h-.05a3,3,0,0,1-2.12,1.06C477.27,235.32,476.6,234.59,476.6,233.24Zm3.94.4.6-2.89c-.42-.75-.88-1-1.42-1-1.37,0-2.62,1.71-2.62,3.44,0,1.17.5,1.73,1.29,1.73A2.93,2.93,0,0,0,480.54,233.64Z" transform="translate(7.6 -6.83)"/><path d="M483.37,234.18a3.58,3.58,0,0,1,.05-.58l.78-3.75h-.9l.07-.38.93-.05.4-1.65h.42l-.33,1.65h1.55l-.09.43h-1.56l-.78,3.78a3.26,3.26,0,0,0-.05.45c0,.53.2.81.82.81a1.48,1.48,0,0,0,.69-.21l.14.38a2,2,0,0,1-.93.26A1.06,1.06,0,0,1,483.37,234.18Z" transform="translate(7.6 -6.83)"/><path d="M486.59,233.24c0-2.21,1.54-4,3.13-4a1.64,1.64,0,0,1,1.48.94h.05l.22-.79h.41l-1.15,5.76h-.42l.13-.92h0a3.07,3.07,0,0,1-2.13,1.06C487.26,235.32,486.59,234.59,486.59,233.24Zm4,.4.6-2.89c-.43-.75-.89-1-1.43-1-1.36,0-2.62,1.71-2.62,3.44,0,1.17.5,1.73,1.29,1.73A3,3,0,0,0,490.54,233.64Z" transform="translate(7.6 -6.83)"/><path d="M492.09,236.62a1.85,1.85,0,0,0,1.2-1.38v-.74l.3.61a.44.44,0,0,1-.36.15.4.4,0,0,1-.43-.42.58.58,0,0,1,.56-.58c.29,0,.45.25.45.59A2.35,2.35,0,0,1,492.2,237Z" transform="translate(7.6 -6.83)"/><path d="M404.78,247.64c0-2.21,1.54-4,3.13-4a1.65,1.65,0,0,1,1.48.94h.05l.22-.79h.41l-1.16,5.76h-.41l.13-.92h-.05a3,3,0,0,1-2.12,1.06C405.45,249.72,404.78,249,404.78,247.64Zm3.94.4.6-2.89c-.42-.75-.88-1-1.42-1-1.36,0-2.62,1.71-2.62,3.44,0,1.17.5,1.73,1.29,1.73A2.93,2.93,0,0,0,408.72,248Z" transform="translate(7.6 -6.83)"/><path d="M410.66,248.65l.35-.26a2,2,0,0,0,1.63.91,1.39,1.39,0,0,0,1.47-1.21c0-.46-.2-.76-1.09-1.24s-1.41-.95-1.41-1.55a1.7,1.7,0,0,1,1.82-1.63,2.12,2.12,0,0,1,1.58.7l-.32.32a1.7,1.7,0,0,0-1.28-.6,1.25,1.25,0,0,0-1.32,1.13c0,.55.51.84,1.07,1.15,1.24.68,1.44,1.12,1.44,1.64a1.8,1.8,0,0,1-2,1.71A2.44,2.44,0,0,1,410.66,248.65Z" transform="translate(7.6 -6.83)"/><path d="M418.63,243.82h.49l.29,3.76c0,.53.08,1,.12,1.56h.05c.24-.51.45-1,.69-1.56l1.73-3.76h.6l.26,3.76c0,.53.06,1,.08,1.56H423c.24-.51.45-1,.71-1.56l1.76-3.76h.48l-2.71,5.76h-.68l-.24-3.6c0-.55,0-1.16-.08-1.7h-.05c-.23.54-.49,1.15-.75,1.7l-1.64,3.6h-.67Z" transform="translate(7.6 -6.83)"/><path d="M429.58,243.67c1.25,0,1.74.86,1.74,2a3.19,3.19,0,0,1-.17,1h-4c-.31,1.81.57,2.57,1.72,2.57a2.59,2.59,0,0,0,1.44-.55l.22.36a3.08,3.08,0,0,1-1.74.62,2.1,2.1,0,0,1-2.19-2.38A3.41,3.41,0,0,1,429.58,243.67Zm1.21,2.66a3.84,3.84,0,0,0,.07-.69c0-.78-.34-1.54-1.32-1.54a2.65,2.65,0,0,0-2.32,2.23Z" transform="translate(7.6 -6.83)"/><path d="M432.42,249.2a1.91,1.91,0,0,1,.05-.36L434,241h.5L433,248.87a1.22,1.22,0,0,0,0,.23c0,.11.05.19.17.19a.42.42,0,0,0,.2,0l0,.4a1,1,0,0,1-.4.08A.48.48,0,0,1,432.42,249.2Z" transform="translate(7.6 -6.83)"/><path d="M435.3,249.2a1.91,1.91,0,0,1,.05-.36l1.57-7.89h.5l-1.58,7.92a1.22,1.22,0,0,0,0,.23c0,.11.05.19.17.19a.42.42,0,0,0,.2,0l0,.4a1,1,0,0,1-.4.08A.48.48,0,0,1,435.3,249.2Z" transform="translate(7.6 -6.83)"/><path d="M440.49,247.64c0-2.21,1.54-4,3.13-4a1.65,1.65,0,0,1,1.48.94h0l.22-.79h.41l-1.15,5.76h-.42l.13-.92h0a3,3,0,0,1-2.12,1.06C441.16,249.72,440.49,249,440.49,247.64Zm3.95.4.6-2.89c-.43-.75-.89-1-1.43-1-1.36,0-2.62,1.71-2.62,3.44,0,1.17.5,1.73,1.29,1.73A3,3,0,0,0,444.44,248Z" transform="translate(7.6 -6.83)"/><path d="M446.38,248.65l.34-.26a2,2,0,0,0,1.63.91,1.39,1.39,0,0,0,1.48-1.21c0-.46-.2-.76-1.1-1.24s-1.41-.95-1.41-1.55a1.7,1.7,0,0,1,1.82-1.63,2.12,2.12,0,0,1,1.58.7l-.31.32a1.71,1.71,0,0,0-1.29-.6,1.25,1.25,0,0,0-1.32,1.13c0,.55.51.84,1.07,1.15,1.25.68,1.44,1.12,1.44,1.64a1.8,1.8,0,0,1-2,1.71A2.4,2.4,0,0,1,446.38,248.65Z" transform="translate(7.6 -6.83)"/><path d="M454.39,248.58a3.58,3.58,0,0,1,.05-.58l.78-3.75h-.9l.07-.38.93-.05.4-1.65h.42l-.33,1.65h1.55l-.09.43h-1.56l-.78,3.78a3.27,3.27,0,0,0,0,.45c0,.53.19.81.81.81a1.48,1.48,0,0,0,.69-.21l.14.38a2,2,0,0,1-.93.26A1.06,1.06,0,0,1,454.39,248.58Z" transform="translate(7.6 -6.83)"/><path d="M459.41,241h.5l-.65,3.19-.16.6h0a3.49,3.49,0,0,1,2.08-1.07,1.24,1.24,0,0,1,1.37,1.41,3.17,3.17,0,0,1-.09.78l-.75,3.72h-.49l.74-3.66a3.36,3.36,0,0,0,.1-.74c0-.7-.31-1.06-1-1.06a3.33,3.33,0,0,0-2,1.21l-.86,4.25h-.49Z" transform="translate(7.6 -6.83)"/><path d="M466.85,243.67c1.24,0,1.73.86,1.73,2a3.19,3.19,0,0,1-.17,1h-4c-.31,1.81.57,2.57,1.72,2.57a2.57,2.57,0,0,0,1.44-.55l.22.36a3.08,3.08,0,0,1-1.74.62,2.1,2.1,0,0,1-2.19-2.38A3.41,3.41,0,0,1,466.85,243.67Zm1.2,2.66a3.11,3.11,0,0,0,.07-.69c0-.78-.34-1.54-1.32-1.54a2.66,2.66,0,0,0-2.32,2.23Z" transform="translate(7.6 -6.83)"/><path d="M472,249.58l1.72-8.63h.5l-.51,2.5-.25,1.17h0a3.58,3.58,0,0,1,2.13-1c1,0,1.68.73,1.68,2.08,0,2.21-1.54,4-3.13,4a1.66,1.66,0,0,1-1.48-.94h0l-.22.8Zm1.37-4.41-.62,3.07c.42.75.88,1,1.42,1,1.37,0,2.62-1.71,2.62-3.44,0-1.15-.5-1.73-1.29-1.73A3.55,3.55,0,0,0,473.32,245.17Z" transform="translate(7.6 -6.83)"/><path d="M481.37,243.67c1.25,0,1.73.86,1.73,2a3.55,3.55,0,0,1-.16,1h-4c-.31,1.81.58,2.57,1.73,2.57a2.62,2.62,0,0,0,1.44-.55l.21.36a3,3,0,0,1-1.73.62,2.1,2.1,0,0,1-2.19-2.38C478.38,245.16,479.89,243.67,481.37,243.67Zm1.2,2.66a3.11,3.11,0,0,0,.07-.69c0-.78-.34-1.54-1.31-1.54a2.67,2.67,0,0,0-2.33,2.23Z" transform="translate(7.6 -6.83)"/><path d="M485.26,243.82h.42l-.13.92h.05a3.37,3.37,0,0,1,2-1.07,1.24,1.24,0,0,1,1.37,1.41,3.17,3.17,0,0,1-.09.78l-.75,3.72h-.49l.74-3.66a3.26,3.26,0,0,0,.09-.74c0-.7-.3-1.06-1-1.06a3.37,3.37,0,0,0-2.05,1.21l-.85,4.25h-.49Z" transform="translate(7.6 -6.83)"/><path d="M493.34,243.67c1.24,0,1.73.86,1.73,2a3.55,3.55,0,0,1-.16,1h-4c-.31,1.81.57,2.57,1.72,2.57a2.57,2.57,0,0,0,1.44-.55l.22.36a3,3,0,0,1-1.73.62,2.1,2.1,0,0,1-2.2-2.38A3.41,3.41,0,0,1,493.34,243.67Zm1.2,2.66a3.11,3.11,0,0,0,.07-.69c0-.78-.34-1.54-1.32-1.54a2.66,2.66,0,0,0-2.32,2.23Z" transform="translate(7.6 -6.83)"/><path d="M496.54,243.87l.77-.05.26-1.32c.24-1.14.83-1.7,1.58-1.7a1.58,1.58,0,0,1,.9.27l-.21.38a1.18,1.18,0,0,0-.69-.21c-.58,0-.94.57-1.09,1.26l-.26,1.32h1.26l-.09.43H497.7l-1.06,5.33h-.49l1.06-5.33h-.74Z" transform="translate(7.6 -6.83)"/><path d="M500.4,243.82h.49l-1.16,5.76h-.49Zm.15-1.79a.53.53,0,0,1,.51-.54.39.39,0,0,1,.4.41.52.52,0,0,1-.5.52A.39.39,0,0,1,500.55,242Z" transform="translate(7.6 -6.83)"/><path d="M502.36,248.58a3.56,3.56,0,0,1,.06-.58l.78-3.75h-.9l.07-.38.93-.05.4-1.65h.42l-.33,1.65h1.55l-.09.43h-1.56l-.78,3.78a2.22,2.22,0,0,0-.05.45c0,.53.19.81.82.81a1.48,1.48,0,0,0,.69-.21l.14.38a2,2,0,0,1-.93.26A1.06,1.06,0,0,1,502.36,248.58Z" transform="translate(7.6 -6.83)"/><path d="M505.17,248.65l.35-.26a1.94,1.94,0,0,0,1.63.91,1.39,1.39,0,0,0,1.47-1.21c0-.46-.2-.76-1.09-1.24s-1.41-.95-1.41-1.55a1.69,1.69,0,0,1,1.81-1.63,2.16,2.16,0,0,1,1.59.7l-.32.32a1.71,1.71,0,0,0-1.29-.6,1.24,1.24,0,0,0-1.31,1.13c0,.55.5.84,1.06,1.15,1.25.68,1.44,1.12,1.44,1.64a1.79,1.79,0,0,1-2,1.71A2.42,2.42,0,0,1,505.17,248.65Z" transform="translate(7.6 -6.83)"/><path d="M443.07,161.36h7.57v1.41h-5.9v4.12h5v1.41h-5v4.78h6.1v1.41h-7.77Z" transform="translate(7.6 -6.83)"/><path d="M453.27,171.48v-5.37h-1.45v-1.25l1.52-.09.2-2.73h1.37v2.73h2.64v1.34h-2.64v5.4c0,1.19.38,1.88,1.51,1.88a3.22,3.22,0,0,0,1.1-.26l.32,1.24a5.71,5.71,0,0,1-1.8.36C454,174.73,453.27,173.42,453.27,171.48Z" transform="translate(7.6 -6.83)"/><path d="M459.74,160.24h1.64v3.9l-.05,2a4.62,4.62,0,0,1,3.22-1.6c2.05,0,3,1.32,3,3.8v6.16h-1.64v-6c0-1.81-.55-2.58-1.84-2.58-1,0-1.68.5-2.66,1.49v7h-1.64Z" transform="translate(7.6 -6.83)"/><path d="M470.32,161.7a1.14,1.14,0,1,1,1.14,1.07A1.08,1.08,0,0,1,470.32,161.7Zm.3,3.07h1.65v9.72h-1.65Z" transform="translate(7.6 -6.83)"/><path d="M474.82,169.64c0-3.24,2.2-5.11,4.68-5.11a4.08,4.08,0,0,1,2.85,1.14l-.84,1.08a2.83,2.83,0,0,0-1.93-.85c-1.76,0-3.06,1.51-3.06,3.74s1.22,3.72,3,3.72a3.51,3.51,0,0,0,2.29-1l.71,1.1a4.73,4.73,0,0,1-3.15,1.24C476.8,174.73,474.82,172.86,474.82,169.64Z" transform="translate(7.6 -6.83)"/><path d="M483.58,173.38l.81-1.08a4.39,4.39,0,0,0,2.87,1.15c1.28,0,1.91-.68,1.91-1.51,0-1-1.14-1.44-2.22-1.85-1.36-.49-2.9-1.16-2.9-2.8s1.25-2.76,3.35-2.76a4.94,4.94,0,0,1,3,1.09l-.79,1a3.69,3.69,0,0,0-2.22-.86c-1.22,0-1.79.65-1.79,1.39,0,.93,1.06,1.28,2.16,1.69,1.4.53,3,1.1,3,3,0,1.58-1.25,2.89-3.54,2.89A5.86,5.86,0,0,1,483.58,173.38Z" transform="translate(7.6 -6.83)"/><path d="M496.44,172c0-2.12,1.83-3.18,6-3.63,0-1.25-.42-2.46-2-2.46a5.39,5.39,0,0,0-2.9,1l-.64-1.12a7.1,7.1,0,0,1,3.82-1.27c2.37,0,3.38,1.57,3.38,4v6H502.7l-.14-1.16h-.06a5.15,5.15,0,0,1-3.21,1.4A2.64,2.64,0,0,1,496.44,172Zm6,.15v-2.7c-3.26.39-4.36,1.19-4.36,2.43s.75,1.55,1.7,1.55A4,4,0,0,0,502.41,172.12Z" transform="translate(7.6 -6.83)"/><path d="M507.13,164.77h1.36l.14,1.4h.05a4.66,4.66,0,0,1,3.26-1.64c2.05,0,3,1.32,3,3.8v6.16h-1.64v-6c0-1.81-.55-2.58-1.84-2.58-1,0-1.68.5-2.66,1.49v7h-1.64Z" transform="translate(7.6 -6.83)"/><path d="M517.37,169.64c0-3.15,2-5.11,4.21-5.11a4,4,0,0,1,2.72,1.12l-.07-1.67v-3.74h1.65v14.25h-1.36l-.14-1.15h-.06a4.27,4.27,0,0,1-3,1.39C518.94,174.73,517.37,172.88,517.37,169.64Zm6.86,2.38v-5.1a3.42,3.42,0,0,0-2.37-1c-1.56,0-2.79,1.5-2.79,3.72s1,3.72,2.67,3.72A3.34,3.34,0,0,0,524.23,172Z" transform="translate(7.6 -6.83)"/><path d="M430.15,184.82h3.9c2.54,0,4.37.91,4.37,3.51s-1.83,3.69-4.37,3.69h-2.32v5.27h-1.58Zm3.68,5.91c1.94,0,3-.78,3-2.4s-1.06-2.22-3-2.22h-2.1v4.62Zm-.09.85,1.24-.82,3.81,6.53H437Z" transform="translate(7.6 -6.83)"/><path d="M439.94,192.68c0-3,2-4.85,4.15-4.85,2.36,0,3.69,1.69,3.69,4.33a5.54,5.54,0,0,1-.07.89h-6.22a3.07,3.07,0,0,0,3.07,3.22,4,4,0,0,0,2.29-.73l.56,1a5.42,5.42,0,0,1-3.05,1C441.9,197.52,439.94,195.72,439.94,192.68Zm6.46-.75c0-1.85-.83-2.86-2.28-2.86s-2.46,1-2.65,2.86Z" transform="translate(7.6 -6.83)"/><path d="M449,196.24l.77-1a4.21,4.21,0,0,0,2.73,1.09c1.21,0,1.81-.65,1.81-1.43,0-1-1.09-1.37-2.11-1.75-1.29-.48-2.75-1.11-2.75-2.67s1.18-2.62,3.18-2.62a4.65,4.65,0,0,1,2.87,1l-.74,1a3.5,3.5,0,0,0-2.11-.83c-1.16,0-1.7.63-1.7,1.33,0,.88,1,1.21,2,1.6,1.33.5,2.82,1,2.82,2.8,0,1.5-1.19,2.75-3.37,2.75A5.6,5.6,0,0,1,449,196.24Z" transform="translate(7.6 -6.83)"/><path d="M458,188.06h1.29l.13,1.06h.05a4.91,4.91,0,0,1,2.95-1.29c2.38,0,3.66,1.85,3.66,4.7,0,3.15-1.89,5-4,5a4.21,4.21,0,0,1-2.56-1.07l0,1.61v3.13H458Zm6.47,4.49c0-2-.7-3.41-2.44-3.41a3.81,3.81,0,0,0-2.47,1.26v4.84a3.63,3.63,0,0,0,2.25,1C463.35,196.2,464.48,194.83,464.48,192.55Z" transform="translate(7.6 -6.83)"/><path d="M467.86,192.68c0-3.08,2-4.85,4.28-4.85s4.28,1.77,4.28,4.85-2,4.84-4.28,4.84S467.86,195.74,467.86,192.68Zm6.95,0c0-2.11-1.08-3.55-2.67-3.55s-2.66,1.44-2.66,3.55,1.07,3.54,2.66,3.54S474.81,194.8,474.81,192.68Z" transform="translate(7.6 -6.83)"/><path d="M478.85,188.06h1.29l.14,1.33h.05a4.39,4.39,0,0,1,3.1-1.56c1.94,0,2.82,1.25,2.82,3.61v5.85h-1.57v-5.65c0-1.72-.52-2.46-1.74-2.46a3.51,3.51,0,0,0-2.52,1.42v6.69h-1.57Z" transform="translate(7.6 -6.83)"/><path d="M488.21,196.24l.78-1a4.17,4.17,0,0,0,2.72,1.09c1.21,0,1.82-.65,1.82-1.43,0-1-1.09-1.37-2.12-1.75-1.29-.48-2.75-1.11-2.75-2.67s1.18-2.62,3.19-2.62a4.67,4.67,0,0,1,2.87,1l-.75,1a3.5,3.5,0,0,0-2.11-.83c-1.16,0-1.7.63-1.7,1.33,0,.88,1,1.21,2,1.6,1.33.5,2.82,1,2.82,2.8,0,1.5-1.19,2.75-3.37,2.75A5.6,5.6,0,0,1,488.21,196.24Z" transform="translate(7.6 -6.83)"/><path d="M496.92,185.15a1.08,1.08,0,0,1,2.15,0,1.08,1.08,0,0,1-2.15,0Zm.28,2.91h1.56v9.23H497.2Z" transform="translate(7.6 -6.83)"/><path d="M503.33,196.34h-.05l-.15.95h-1.25V183.76h1.56v3.7l-.05,1.65a4.71,4.71,0,0,1,2.9-1.28c2.39,0,3.67,1.85,3.67,4.7,0,3.15-1.89,5-4,5A4.12,4.12,0,0,1,503.33,196.34Zm5-3.79c0-2-.7-3.41-2.44-3.41a3.77,3.77,0,0,0-2.47,1.26v4.84a3.59,3.59,0,0,0,2.25,1C507.22,196.2,508.35,194.83,508.35,192.55Z" transform="translate(7.6 -6.83)"/><path d="M512.11,185.15a1.08,1.08,0,0,1,2.16,0,1.08,1.08,0,0,1-2.16,0Zm.29,2.91H514v9.23H512.4Z" transform="translate(7.6 -6.83)"/><path d="M517.08,195.44V183.76h1.56v11.79c0,.48.21.67.43.67a1.35,1.35,0,0,0,.35,0l.21,1.19a2.49,2.49,0,0,1-.9.15C517.56,197.52,517.08,196.77,517.08,195.44Z" transform="translate(7.6 -6.83)"/><path d="M521.63,185.15a1.08,1.08,0,0,1,2.16,0,1.08,1.08,0,0,1-2.16,0Zm.29,2.91h1.56v9.23h-1.56Z" transform="translate(7.6 -6.83)"/><path d="M526.87,194.43v-5.1H525.5v-1.18l1.44-.09.19-2.59h1.31v2.59h2.5v1.27h-2.5v5.13c0,1.13.36,1.79,1.43,1.79a3.22,3.22,0,0,0,1-.25l.3,1.18a5.78,5.78,0,0,1-1.72.34C527.54,197.52,526.87,196.27,526.87,194.43Z" transform="translate(7.6 -6.83)"/><path d="M532.1,201.08l.3-1.25a2.24,2.24,0,0,0,.71.14c1,0,1.7-.83,2.08-2l.21-.68-3.71-9.25h1.61l1.89,5.11c.29.8.6,1.75.9,2.6h.07c.27-.84.53-1.79.78-2.6l1.65-5.11h1.53l-3.48,10c-.65,1.83-1.61,3.22-3.46,3.22A3.07,3.07,0,0,1,532.1,201.08Z" transform="translate(7.6 -6.83)"/><path d="M420.4,50h4.17l-.09.44h-3.66l-.61,3h3.09l-.09.44h-3.07l-.73,3.53h3.77l-.09.44h-4.27Z" transform="translate(7.6 -6.83)"/><path d="M426,52.13h.41l-.13.92h.05A3.25,3.25,0,0,1,428.22,52a1.17,1.17,0,0,1,1.32,1.2,3.54,3.54,0,0,1,2.1-1.2A1.23,1.23,0,0,1,433,53.4a3.15,3.15,0,0,1-.09.77l-.75,3.72h-.49l.74-3.65a3.36,3.36,0,0,0,.1-.74c0-.71-.3-1.07-1-1.07a3.41,3.41,0,0,0-1.92,1.21l-.85,4.25h-.49l.73-3.65a3.36,3.36,0,0,0,.1-.74c0-.71-.3-1.07-1-1.07a3.4,3.4,0,0,0-1.91,1.21l-.85,4.25h-.5Z" transform="translate(7.6 -6.83)"/><path d="M434.67,58.41l-.4,2.09h-.49l1.67-8.37h.42l-.13.82h.05a3.48,3.48,0,0,1,2.11-1c1,0,1.68.74,1.68,2.08,0,2.21-1.53,4-3.12,4a1.78,1.78,0,0,1-1.52-.93h0Zm1-4.9L435,56.6a1.61,1.61,0,0,0,1.42,1c1.37,0,2.62-1.71,2.62-3.45,0-1.15-.49-1.72-1.28-1.72A3.44,3.44,0,0,0,435.67,53.51Z" transform="translate(7.6 -6.83)"/><path d="M440.72,55.76c0-2.16,1.47-3.77,3-3.77,1.18,0,1.95.83,1.95,2.28,0,2.15-1.47,3.77-3,3.77C441.49,58,440.72,57.2,440.72,55.76Zm4.49-1.43c0-1.24-.54-1.91-1.49-1.91-1.24,0-2.5,1.5-2.5,3.27,0,1.25.54,1.91,1.49,1.91C444,57.6,445.21,56.1,445.21,54.33Z" transform="translate(7.6 -6.83)"/><path d="M447.13,52.13h.5l.29,3.77c0,.53.08,1,.12,1.56h0c.24-.52.45-1,.69-1.56l1.73-3.77h.59l.27,3.77c0,.53.06,1,.08,1.56h.05c.24-.52.45-1,.71-1.56L454,52.13h.48l-2.71,5.76h-.68l-.24-3.59c0-.55,0-1.17-.08-1.71h-.05c-.24.54-.49,1.16-.75,1.71l-1.64,3.59h-.67Z" transform="translate(7.6 -6.83)"/><path d="M458.09,52c1.25,0,1.74.86,1.74,2a3.19,3.19,0,0,1-.17,1h-4c-.31,1.8.57,2.57,1.72,2.57a2.67,2.67,0,0,0,1.44-.55l.22.35a3,3,0,0,1-1.74.63,2.1,2.1,0,0,1-2.19-2.38A3.41,3.41,0,0,1,458.09,52Zm1.21,2.65a3.64,3.64,0,0,0,.07-.68c0-.78-.34-1.54-1.32-1.54a2.64,2.64,0,0,0-2.32,2.22Z" transform="translate(7.6 -6.83)"/><path d="M462,52.13h.42l-.18,1.09h0a2.36,2.36,0,0,1,1.8-1.23,1.49,1.49,0,0,1,.52.1l-.19.47a.88.88,0,0,0-.45-.1c-.62,0-1.35.59-1.87,1.62l-.76,3.81h-.49Z" transform="translate(7.6 -6.83)"/><path d="M472,51.77l.51-2.51H473l-1.74,8.63h-.42L471,57h0A3.09,3.09,0,0,1,468.82,58c-1,0-1.67-.73-1.67-2.08,0-2.22,1.53-4,3.12-4a1.64,1.64,0,0,1,1.48.93h0Zm-.93,4.58.6-2.89c-.43-.74-.89-1-1.43-1-1.36,0-2.61,1.71-2.61,3.44,0,1.16.49,1.73,1.28,1.73A3,3,0,0,0,471.09,56.35Z" transform="translate(7.6 -6.83)"/><path d="M476.55,52c1.25,0,1.73.86,1.73,2a3.55,3.55,0,0,1-.16,1h-4c-.31,1.8.58,2.57,1.73,2.57a2.7,2.7,0,0,0,1.44-.55l.21.35a3,3,0,0,1-1.73.63,2.1,2.1,0,0,1-2.19-2.38C473.56,53.48,475.07,52,476.55,52Zm1.2,2.65a3,3,0,0,0,.08-.68c0-.78-.35-1.54-1.32-1.54a2.65,2.65,0,0,0-2.33,2.22Z" transform="translate(7.6 -6.83)"/><path d="M479.31,55.76a3.51,3.51,0,0,1,3.1-3.77,1.8,1.8,0,0,1,1.46.7l-.32.33a1.39,1.39,0,0,0-1.17-.6c-1.3,0-2.57,1.51-2.57,3.27,0,1.25.52,1.91,1.6,1.91a2.44,2.44,0,0,0,1.48-.59l.25.35a2.86,2.86,0,0,1-1.8.68A2,2,0,0,1,479.31,55.76Z" transform="translate(7.6 -6.83)"/><path d="M485.7,52.13h.49L485,57.89h-.5Zm.15-1.78a.53.53,0,0,1,.51-.54.39.39,0,0,1,.4.41.51.51,0,0,1-.5.52A.4.4,0,0,1,485.85,50.35Z" transform="translate(7.6 -6.83)"/><path d="M486.78,57l.35-.27a2,2,0,0,0,1.63.92,1.39,1.39,0,0,0,1.47-1.21c0-.46-.2-.77-1.09-1.25s-1.41-.95-1.41-1.54A1.7,1.7,0,0,1,489.55,52a2.14,2.14,0,0,1,1.58.7l-.32.31a1.69,1.69,0,0,0-1.28-.59,1.24,1.24,0,0,0-1.32,1.12c0,.56.5.85,1.07,1.16,1.24.68,1.43,1.11,1.43,1.63a1.79,1.79,0,0,1-2,1.72A2.44,2.44,0,0,1,486.78,57Z" transform="translate(7.6 -6.83)"/><path d="M493.2,52.13h.49l-1.15,5.76H492Zm.15-1.78a.53.53,0,0,1,.51-.54.39.39,0,0,1,.4.41.51.51,0,0,1-.5.52A.39.39,0,0,1,493.35,50.35Z" transform="translate(7.6 -6.83)"/><path d="M494.82,55.76c0-2.16,1.47-3.77,3-3.77,1.18,0,1.95.83,1.95,2.28,0,2.15-1.47,3.77-3,3.77C495.59,58,494.82,57.2,494.82,55.76Zm4.49-1.43c0-1.24-.54-1.91-1.49-1.91-1.24,0-2.5,1.5-2.5,3.27,0,1.25.54,1.91,1.49,1.91C498.05,57.6,499.31,56.1,499.31,54.33Z" transform="translate(7.6 -6.83)"/><path d="M502.08,52.13h.41l-.13.92h.05A3.35,3.35,0,0,1,504.47,52a1.24,1.24,0,0,1,1.37,1.41,3.19,3.19,0,0,1-.1.77L505,57.89h-.5l.74-3.65a3.36,3.36,0,0,0,.1-.74c0-.71-.3-1.07-1-1.07a3.39,3.39,0,0,0-2.05,1.21l-.85,4.25h-.5Z" transform="translate(7.6 -6.83)"/><path d="M506.64,57l.35-.27a1.93,1.93,0,0,0,1.63.92,1.39,1.39,0,0,0,1.47-1.21c0-.46-.2-.77-1.09-1.25s-1.41-.95-1.41-1.54A1.7,1.7,0,0,1,509.41,52a2.16,2.16,0,0,1,1.58.7l-.32.31a1.7,1.7,0,0,0-1.29-.59,1.23,1.23,0,0,0-1.31,1.12c0,.56.5.85,1.07,1.16,1.24.68,1.43,1.11,1.43,1.63a1.79,1.79,0,0,1-2,1.72A2.42,2.42,0,0,1,506.64,57Z" transform="translate(7.6 -6.83)"/><path d="M514.6,52.13h.49l.3,3.77c0,.53.08,1,.12,1.56h0c.23-.52.45-1,.69-1.56L518,52.13h.59l.27,3.77c0,.53.06,1,.08,1.56H519c.24-.52.45-1,.71-1.56l1.76-3.77h.48l-2.72,5.76h-.67l-.24-3.59c0-.55,0-1.17-.08-1.71h-.05c-.24.54-.49,1.16-.75,1.71l-1.64,3.59h-.67Z" transform="translate(7.6 -6.83)"/><path d="M523.71,52.13h.5l-1.16,5.76h-.49Zm.16-1.78a.52.52,0,0,1,.5-.54.39.39,0,0,1,.41.41.52.52,0,0,1-.51.52A.39.39,0,0,1,523.87,50.35Z" transform="translate(7.6 -6.83)"/><path d="M525.68,56.9a5.22,5.22,0,0,1,.05-.58l.78-3.76h-.89l.07-.38.93,0,.4-1.64h.41l-.33,1.64h1.56l-.1.43H527l-.78,3.79a2.14,2.14,0,0,0-.05.45c0,.53.19.81.81.81a1.52,1.52,0,0,0,.69-.21l.15.37a2,2,0,0,1-.93.27A1.06,1.06,0,0,1,525.68,56.9Z" transform="translate(7.6 -6.83)"/><path d="M530.71,49.26h.49l-.64,3.2-.16.6h.05A3.46,3.46,0,0,1,532.53,52a1.24,1.24,0,0,1,1.37,1.41,2.76,2.76,0,0,1-.1.77l-.74,3.72h-.49l.73-3.65a3.36,3.36,0,0,0,.1-.74c0-.71-.3-1.07-1-1.07a3.39,3.39,0,0,0-2,1.21l-.85,4.25H529Z" transform="translate(7.6 -6.83)"/><path d="M434.39,66.53h.41l-.13.92h.05a3.28,3.28,0,0,1,1.92-1.06,1.18,1.18,0,0,1,1.33,1.2,3.49,3.49,0,0,1,2.1-1.2,1.24,1.24,0,0,1,1.35,1.41,3.19,3.19,0,0,1-.1.77l-.74,3.72h-.5l.74-3.65a3.36,3.36,0,0,0,.1-.74c0-.71-.3-1.07-1-1.07A3.4,3.4,0,0,0,438,68l-.86,4.25h-.49l.74-3.65a3.26,3.26,0,0,0,.09-.74c0-.71-.3-1.07-1-1.07A3.38,3.38,0,0,0,434.58,68l-.85,4.25h-.49Z" transform="translate(7.6 -6.83)"/><path d="M442.76,70.36c0-2.22,1.54-4,3.13-4a1.62,1.62,0,0,1,1.48.94h.05l.22-.8h.41l-1.15,5.76h-.42l.13-.91h0a3.11,3.11,0,0,1-2.13,1.06C443.43,72.44,442.76,71.71,442.76,70.36Zm3.95.39.6-2.89c-.43-.74-.89-1-1.43-1-1.36,0-2.62,1.71-2.62,3.44,0,1.16.5,1.73,1.29,1.73A3,3,0,0,0,446.71,70.75Z" transform="translate(7.6 -6.83)"/><path d="M449.16,70.16a3.51,3.51,0,0,1,3.11-3.77,1.79,1.79,0,0,1,1.45.7l-.32.33a1.36,1.36,0,0,0-1.17-.6c-1.29,0-2.57,1.51-2.57,3.27,0,1.25.53,1.91,1.6,1.91a2.47,2.47,0,0,0,1.49-.59l.25.35a2.9,2.9,0,0,1-1.8.68A2,2,0,0,1,449.16,70.16Z" transform="translate(7.6 -6.83)"/><path d="M456.12,63.66h.49l-.64,3.2-.16.6h.05a3.43,3.43,0,0,1,2.08-1.07,1.24,1.24,0,0,1,1.37,1.41,2.76,2.76,0,0,1-.1.77l-.74,3.72H458l.74-3.65a3.26,3.26,0,0,0,.09-.74c0-.71-.3-1.07-1-1.07A3.42,3.42,0,0,0,455.74,68l-.85,4.25h-.49Z" transform="translate(7.6 -6.83)"/><path d="M461.69,66.53h.5L461,72.29h-.49Zm.16-1.78a.52.52,0,0,1,.5-.54.39.39,0,0,1,.41.41.52.52,0,0,1-.51.52A.39.39,0,0,1,461.85,64.75Z" transform="translate(7.6 -6.83)"/><path d="M464.43,66.53h.41l-.13.92h.05a3.4,3.4,0,0,1,2.06-1.06,1.24,1.24,0,0,1,1.37,1.41,2.76,2.76,0,0,1-.1.77l-.74,3.72h-.49l.74-3.65a3.26,3.26,0,0,0,.09-.74c0-.71-.3-1.07-1-1.07A3.42,3.42,0,0,0,464.62,68l-.85,4.25h-.49Z" transform="translate(7.6 -6.83)"/><path d="M472.5,66.39c1.25,0,1.74.86,1.74,2a3.19,3.19,0,0,1-.17,1h-4c-.31,1.8.57,2.57,1.72,2.57a2.67,2.67,0,0,0,1.44-.55l.22.35a3,3,0,0,1-1.74.63,2.1,2.1,0,0,1-2.19-2.38A3.41,3.41,0,0,1,472.5,66.39ZM473.71,69a3.64,3.64,0,0,0,.07-.68c0-.78-.34-1.54-1.32-1.54A2.64,2.64,0,0,0,470.14,69Z" transform="translate(7.6 -6.83)"/><path d="M477.71,71.92a2,2,0,0,1,.05-.37l1.57-7.89h.5l-1.58,7.92a1.3,1.3,0,0,0,0,.24c0,.11,0,.18.17.18a.44.44,0,0,0,.19,0l0,.4a1,1,0,0,1-.4.08A.48.48,0,0,1,477.71,71.92Z" transform="translate(7.6 -6.83)"/><path d="M483.5,66.39c1.25,0,1.74.86,1.74,2a3.19,3.19,0,0,1-.17,1h-4c-.31,1.8.57,2.57,1.72,2.57a2.67,2.67,0,0,0,1.44-.55l.22.35a3,3,0,0,1-1.74.63,2.1,2.1,0,0,1-2.19-2.38A3.41,3.41,0,0,1,483.5,66.39ZM484.71,69a3.64,3.64,0,0,0,.07-.68c0-.78-.34-1.54-1.32-1.54A2.64,2.64,0,0,0,481.14,69Z" transform="translate(7.6 -6.83)"/><path d="M486.29,70.36c0-2.22,1.53-4,3.12-4a1.65,1.65,0,0,1,1.49.94h0l.22-.8h.42l-1.16,5.76H490l.13-.91h0A3.07,3.07,0,0,1,488,72.44C487,72.44,486.29,71.71,486.29,70.36Zm3.94.39.6-2.89a1.64,1.64,0,0,0-1.42-1c-1.37,0-2.62,1.71-2.62,3.44,0,1.16.49,1.73,1.28,1.73A3,3,0,0,0,490.23,70.75Z" transform="translate(7.6 -6.83)"/><path d="M493.82,66.53h.41l-.17,1.09h.05a2.35,2.35,0,0,1,1.8-1.23,1.4,1.4,0,0,1,.51.1l-.19.47a.83.83,0,0,0-.45-.1c-.61,0-1.34.59-1.86,1.62l-.76,3.81h-.49Z" transform="translate(7.6 -6.83)"/><path d="M497.72,66.53h.42l-.13.92h0a3.4,3.4,0,0,1,2.06-1.06,1.24,1.24,0,0,1,1.37,1.41,3.15,3.15,0,0,1-.09.77l-.75,3.72h-.49l.74-3.65a3.26,3.26,0,0,0,.09-.74c0-.71-.3-1.07-1-1.07a3.42,3.42,0,0,0-2,1.21l-.85,4.25h-.49Z" transform="translate(7.6 -6.83)"/><path d="M503.94,66.53h.49l-1.15,5.76h-.5Zm.15-1.78a.53.53,0,0,1,.51-.54.39.39,0,0,1,.4.41.51.51,0,0,1-.5.52A.39.39,0,0,1,504.09,64.75Z" transform="translate(7.6 -6.83)"/><path d="M506.67,66.53h.42l-.13.92H507a3.35,3.35,0,0,1,2.05-1.06,1.24,1.24,0,0,1,1.37,1.41,3.15,3.15,0,0,1-.09.77l-.74,3.72h-.5l.74-3.65a3.36,3.36,0,0,0,.1-.74c0-.71-.3-1.07-1-1.07a3.4,3.4,0,0,0-2,1.21L506,72.29h-.49Z" transform="translate(7.6 -6.83)"/><path d="M511.29,74.27l.28-.36a2.49,2.49,0,0,0,1.7.73c1.13,0,1.76-.82,2-2l.29-1.35a3.11,3.11,0,0,1-2.14,1c-1,0-1.66-.71-1.66-2,0-2.14,1.53-3.88,3.05-3.88a1.64,1.64,0,0,1,1.48.94h.05l.22-.8H517l-1.26,6.26a2.5,2.5,0,0,1-2.49,2.28A3,3,0,0,1,511.29,74.27Zm4.37-3.56.59-2.85c-.44-.74-.88-1-1.42-1-1.3,0-2.55,1.7-2.55,3.35,0,1.13.47,1.69,1.26,1.69A3.21,3.21,0,0,0,515.66,70.71Z" transform="translate(7.6 -6.83)"/><path d="M517.2,73.74a1.88,1.88,0,0,0,1.21-1.39v-.73l.29.6a.44.44,0,0,1-.35.16.41.41,0,0,1-.44-.42.58.58,0,0,1,.56-.58c.3,0,.46.24.46.58a2.34,2.34,0,0,1-1.62,2.14Z" transform="translate(7.6 -6.83)"/><path d="M438.89,80.79c1.25,0,1.73.86,1.73,2a3.61,3.61,0,0,1-.16,1h-4c-.31,1.8.58,2.57,1.73,2.57a2.58,2.58,0,0,0,1.43-.56l.22.36a3,3,0,0,1-1.73.63,2.1,2.1,0,0,1-2.19-2.38C435.9,82.28,437.41,80.79,438.89,80.79Zm1.2,2.65a3,3,0,0,0,.07-.68c0-.78-.34-1.54-1.32-1.54a2.65,2.65,0,0,0-2.32,2.22Z" transform="translate(7.6 -6.83)"/><path d="M443.27,83.65l-1.14-2.72h.52l.59,1.46c.14.35.23.62.37,1h.05l.83-1,1.26-1.46h.54l-2.43,2.83,1.23,2.93h-.52L444,85.13c-.14-.35-.3-.74-.46-1.09h-.05c-.28.35-.58.69-.93,1.07l-1.37,1.58h-.57Z" transform="translate(7.6 -6.83)"/><path d="M446.82,87.21l-.4,2.09h-.49l1.67-8.37H448l-.12.82h.05a3.48,3.48,0,0,1,2.11-1c1,0,1.68.74,1.68,2.08,0,2.21-1.53,4-3.12,4a1.8,1.8,0,0,1-1.52-.93h0Zm1-4.9-.63,3.09a1.61,1.61,0,0,0,1.42,1c1.37,0,2.62-1.71,2.62-3.45,0-1.15-.49-1.72-1.28-1.72A3.44,3.44,0,0,0,447.82,82.31Z" transform="translate(7.6 -6.83)"/><path d="M455.84,80.79c1.25,0,1.73.86,1.73,2a3.28,3.28,0,0,1-.16,1h-4c-.32,1.8.57,2.57,1.72,2.57a2.61,2.61,0,0,0,1.44-.56l.22.36a3,3,0,0,1-1.74.63,2.1,2.1,0,0,1-2.19-2.38A3.41,3.41,0,0,1,455.84,80.79Zm1.21,2.65a3.64,3.64,0,0,0,.07-.68c0-.78-.34-1.54-1.32-1.54a2.64,2.64,0,0,0-2.32,2.22Z" transform="translate(7.6 -6.83)"/><path d="M459.73,80.93h.42L460,82h0a2.36,2.36,0,0,1,1.8-1.23,1.29,1.29,0,0,1,.52.1l-.19.46a1,1,0,0,0-.45-.09c-.62,0-1.35.59-1.87,1.62l-.76,3.81h-.49Z" transform="translate(7.6 -6.83)"/><path d="M463.64,80.93h.49L463,86.69h-.5Zm.15-1.78a.53.53,0,0,1,.51-.54.39.39,0,0,1,.4.41.51.51,0,0,1-.5.52A.39.39,0,0,1,463.79,79.15Z" transform="translate(7.6 -6.83)"/><path d="M466.37,80.93h.42l-.13.92h0a3.25,3.25,0,0,1,1.92-1.06A1.17,1.17,0,0,1,470,82a3.54,3.54,0,0,1,2.1-1.2,1.24,1.24,0,0,1,1.35,1.41,3.15,3.15,0,0,1-.09.77l-.75,3.72h-.49l.74-3.65a3.26,3.26,0,0,0,.09-.74c0-.71-.3-1.07-1-1.07A3.4,3.4,0,0,0,470,82.44l-.85,4.25h-.5l.74-3.65a3.36,3.36,0,0,0,.1-.74c0-.71-.3-1.07-1-1.07a3.4,3.4,0,0,0-1.91,1.21l-.86,4.25h-.49Z" transform="translate(7.6 -6.83)"/><path d="M477.72,80.79c1.24,0,1.73.86,1.73,2a3.61,3.61,0,0,1-.16,1h-4c-.31,1.8.57,2.57,1.72,2.57a2.58,2.58,0,0,0,1.44-.56l.22.36a3,3,0,0,1-1.73.63,2.1,2.1,0,0,1-2.2-2.38A3.41,3.41,0,0,1,477.72,80.79Zm1.2,2.65a3,3,0,0,0,.07-.68c0-.78-.34-1.54-1.32-1.54a2.65,2.65,0,0,0-2.32,2.22Z" transform="translate(7.6 -6.83)"/><path d="M481.61,80.93H482l-.13.92h.05A3.4,3.4,0,0,1,484,80.79a1.24,1.24,0,0,1,1.37,1.41,3.19,3.19,0,0,1-.1.77l-.74,3.72H484l.74-3.65a4,4,0,0,0,.09-.74c0-.71-.3-1.07-1-1.07a3.42,3.42,0,0,0-2.05,1.21L481,86.69h-.49Z" transform="translate(7.6 -6.83)"/><path d="M487.05,85.7a3.56,3.56,0,0,1,.06-.58l.78-3.76H487l.07-.38.93,0,.4-1.64h.42l-.33,1.64H490l-.09.43h-1.56l-.78,3.79a3.1,3.1,0,0,0-.05.45c0,.53.2.81.82.81a1.6,1.6,0,0,0,.69-.21l.14.37a2,2,0,0,1-.93.27A1.07,1.07,0,0,1,487.05,85.7Z" transform="translate(7.6 -6.83)"/><path d="M490.28,84.76c0-2.22,1.54-4,3.13-4a1.64,1.64,0,0,1,1.48.94h.05l.22-.8h.41l-1.15,5.76H494l.13-.91h-.05A3.07,3.07,0,0,1,492,86.84C491,86.84,490.28,86.11,490.28,84.76Zm4,.39.6-2.89c-.43-.74-.89-1-1.43-1-1.36,0-2.62,1.71-2.62,3.44,0,1.16.5,1.73,1.29,1.73A3,3,0,0,0,494.23,85.15Z" transform="translate(7.6 -6.83)"/><path d="M497.05,85.7a5.22,5.22,0,0,1,.05-.58l.78-3.76H497l.08-.38.92,0,.4-1.64h.42l-.33,1.64H500l-.1.43h-1.56l-.78,3.79a3.14,3.14,0,0,0,0,.45c0,.53.19.81.81.81a1.6,1.6,0,0,0,.69-.21l.14.37a2,2,0,0,1-.93.27A1.06,1.06,0,0,1,497.05,85.7Z" transform="translate(7.6 -6.83)"/><path d="M501.51,80.93H502l-1.16,5.76h-.49Zm.15-1.78a.53.53,0,0,1,.51-.54.39.39,0,0,1,.4.41.51.51,0,0,1-.5.52A.39.39,0,0,1,501.66,79.15Z" transform="translate(7.6 -6.83)"/><path d="M503.13,84.56c0-2.16,1.47-3.77,3-3.77,1.18,0,1.95.83,1.95,2.28,0,2.15-1.47,3.77-3,3.77C503.9,86.84,503.13,86,503.13,84.56Zm4.49-1.43c0-1.24-.54-1.91-1.49-1.91-1.24,0-2.5,1.5-2.5,3.27,0,1.25.54,1.91,1.49,1.91C506.36,86.4,507.62,84.9,507.62,83.13Z" transform="translate(7.6 -6.83)"/><path d="M510.39,80.93h.41l-.13.92h.05a3.35,3.35,0,0,1,2.06-1.06,1.24,1.24,0,0,1,1.37,1.41,3.19,3.19,0,0,1-.1.77l-.74,3.72h-.5l.74-3.65a3.36,3.36,0,0,0,.1-.74c0-.71-.3-1.07-1-1.07a3.39,3.39,0,0,0-2.05,1.21l-.85,4.25h-.5Z" transform="translate(7.6 -6.83)"/><path d="M514.56,88.14a1.88,1.88,0,0,0,1.21-1.39V86l.29.6a.44.44,0,0,1-.35.16.41.41,0,0,1-.44-.42.58.58,0,0,1,.56-.58c.3,0,.46.24.46.58a2.34,2.34,0,0,1-1.62,2.14Z" transform="translate(7.6 -6.83)"/><path d="M442.35,99.16c0-2.22,1.53-4,3.12-4a1.65,1.65,0,0,1,1.49.94h0l.22-.8h.42l-1.16,5.76h-.42l.13-.91h0a3.07,3.07,0,0,1-2.12,1.06C443,101.24,442.35,100.51,442.35,99.16Zm3.94.39.6-2.89c-.43-.74-.89-1-1.43-1-1.36,0-2.61,1.71-2.61,3.44,0,1.16.49,1.73,1.28,1.73A3,3,0,0,0,446.29,99.55Z" transform="translate(7.6 -6.83)"/><path d="M449.88,95.33h.41l-.12.92h0a3.4,3.4,0,0,1,2.06-1.06,1.24,1.24,0,0,1,1.37,1.41,2.76,2.76,0,0,1-.1.77l-.74,3.72h-.49l.74-3.65a3.26,3.26,0,0,0,.09-.74c0-.71-.3-1.07-1-1.07a3.39,3.39,0,0,0-2.05,1.21l-.85,4.25h-.49Z" transform="translate(7.6 -6.83)"/><path d="M459.86,95l.51-2.51h.49l-1.74,8.63h-.42l.13-.91h0a3.09,3.09,0,0,1-2.13,1.06c-1,0-1.67-.73-1.67-2.08,0-2.22,1.53-4,3.12-4a1.64,1.64,0,0,1,1.48.93h0Zm-.93,4.58.6-2.89c-.43-.74-.89-1-1.43-1-1.36,0-2.61,1.71-2.61,3.44,0,1.16.49,1.73,1.28,1.73A3,3,0,0,0,458.93,99.55Z" transform="translate(7.6 -6.83)"/><path d="M463.79,99c0-2.16,1.47-3.77,3-3.77,1.17,0,1.94.83,1.94,2.28,0,2.15-1.47,3.77-3,3.77C464.55,101.24,463.79,100.4,463.79,99Zm4.48-1.43c0-1.24-.54-1.91-1.49-1.91-1.23,0-2.5,1.5-2.5,3.27,0,1.25.54,1.91,1.49,1.91C467,100.8,468.27,99.3,468.27,97.53Z" transform="translate(7.6 -6.83)"/><path d="M469.89,101.09l1.72-8.63h.49L471.59,95l-.25,1.17h0a3.52,3.52,0,0,1,2.13-1c1,0,1.67.73,1.67,2.08,0,2.21-1.53,4-3.12,4a1.64,1.64,0,0,1-1.48-.94h-.05l-.22.79Zm1.37-4.4-.63,3.07c.43.74.88,1,1.43,1,1.36,0,2.61-1.71,2.61-3.45,0-1.15-.49-1.72-1.28-1.72A3.5,3.5,0,0,0,471.26,96.69Z" transform="translate(7.6 -6.83)"/><path d="M475.79,100.17l.35-.27a2,2,0,0,0,1.63.92,1.39,1.39,0,0,0,1.48-1.21c0-.46-.21-.77-1.1-1.25s-1.41-1-1.41-1.55a1.7,1.7,0,0,1,1.82-1.62,2.12,2.12,0,0,1,1.58.7l-.31.31a1.7,1.7,0,0,0-1.29-.59,1.24,1.24,0,0,0-1.32,1.12c0,.56.51.85,1.07,1.16,1.25.68,1.44,1.11,1.44,1.63a1.8,1.8,0,0,1-2,1.72A2.44,2.44,0,0,1,475.79,100.17Z" transform="translate(7.6 -6.83)"/><path d="M484.07,95.19c1.25,0,1.73.86,1.73,2a3.61,3.61,0,0,1-.16,1h-4c-.31,1.8.58,2.57,1.72,2.57a2.58,2.58,0,0,0,1.44-.56l.22.36a3,3,0,0,1-1.73.63,2.1,2.1,0,0,1-2.19-2.38C481.08,96.68,482.59,95.19,484.07,95.19Zm1.2,2.65a3,3,0,0,0,.07-.68c0-.78-.34-1.54-1.32-1.54a2.65,2.65,0,0,0-2.32,2.22Z" transform="translate(7.6 -6.83)"/><path d="M488,95.33h.42l-.18,1.09h.05a2.35,2.35,0,0,1,1.8-1.23,1.22,1.22,0,0,1,.51.1l-.19.46a1,1,0,0,0-.45-.09c-.61,0-1.34.59-1.86,1.62l-.76,3.81h-.49Z" transform="translate(7.6 -6.83)"/><path d="M491,95.33h.49l.56,3.64c.08.56.15,1.16.24,1.7h0c.29-.56.59-1.14.9-1.7l1.95-3.64h.51l-3.15,5.76h-.63Z" transform="translate(7.6 -6.83)"/><path d="M496,99.16c0-2.22,1.54-4,3.13-4a1.62,1.62,0,0,1,1.48.94h.05l.22-.8h.41l-1.15,5.76h-.42l.13-.91h0a3.09,3.09,0,0,1-2.13,1.06C496.64,101.24,496,100.51,496,99.16Zm3.95.39.6-2.89c-.43-.74-.89-1-1.43-1-1.36,0-2.61,1.71-2.61,3.44,0,1.16.49,1.73,1.28,1.73A3,3,0,0,0,499.92,99.55Z" transform="translate(7.6 -6.83)"/><path d="M502.74,100.1a3.58,3.58,0,0,1,.05-.58l.78-3.76h-.9l.08-.38.92,0,.4-1.64h.42l-.33,1.64h1.56l-.1.43h-1.56l-.78,3.79a3,3,0,0,0,0,.45c0,.53.19.81.81.81a1.6,1.6,0,0,0,.69-.21l.14.37a2,2,0,0,1-.92.27A1.06,1.06,0,0,1,502.74,100.1Z" transform="translate(7.6 -6.83)"/><path d="M507.2,95.33h.49l-1.15,5.76H506Zm.15-1.78a.53.53,0,0,1,.51-.54.39.39,0,0,1,.4.41.51.51,0,0,1-.5.52A.39.39,0,0,1,507.35,93.55Z" transform="translate(7.6 -6.83)"/><path d="M508.82,99c0-2.16,1.47-3.77,3-3.77,1.18,0,1.95.83,1.95,2.28,0,2.15-1.47,3.77-3,3.77C509.59,101.24,508.82,100.4,508.82,99Zm4.49-1.43c0-1.24-.54-1.91-1.49-1.91-1.24,0-2.5,1.5-2.5,3.27,0,1.25.54,1.91,1.49,1.91C512.05,100.8,513.31,99.3,513.31,97.53Z" transform="translate(7.6 -6.83)"/><path d="M516.08,95.33h.41l-.13.92h0a3.35,3.35,0,0,1,2.06-1.06,1.24,1.24,0,0,1,1.37,1.41,3.19,3.19,0,0,1-.1.77l-.74,3.72h-.5l.74-3.65a3.36,3.36,0,0,0,.1-.74c0-.71-.3-1.07-1-1.07a3.39,3.39,0,0,0-2.05,1.21l-.85,4.25h-.5Z" transform="translate(7.6 -6.83)"/><path d="M406.07,23.07h4.11c2.68,0,4.6,1,4.6,3.7s-1.92,3.88-4.6,3.88h-2.44V36.2h-1.67Zm3.87,6.22c2.05,0,3.17-.82,3.17-2.52s-1.12-2.34-3.17-2.34h-2.2v4.86Zm-.08.9,1.3-.86,4,6.87h-1.89Z" transform="translate(7.6 -6.83)"/><path d="M416.38,31.35c0-3.16,2.14-5.11,4.37-5.11,2.48,0,3.88,1.78,3.88,4.56a5,5,0,0,1-.07.93H418c.12,2.06,1.38,3.4,3.23,3.4a4.23,4.23,0,0,0,2.42-.78l.59,1.08a5.7,5.7,0,0,1-3.21,1C418.45,36.44,416.38,34.54,416.38,31.35Zm6.8-.8c0-1.94-.88-3-2.4-3-1.36,0-2.58,1.09-2.78,3Z" transform="translate(7.6 -6.83)"/><path d="M425.94,35.09l.81-1.08a4.41,4.41,0,0,0,2.87,1.15c1.28,0,1.91-.68,1.91-1.51,0-1-1.14-1.45-2.22-1.85-1.36-.49-2.9-1.16-2.9-2.8s1.25-2.76,3.35-2.76a4.94,4.94,0,0,1,3,1.09L432,28.38a3.69,3.69,0,0,0-2.22-.86c-1.22,0-1.79.65-1.79,1.39,0,.93,1.06,1.28,2.16,1.69,1.4.53,3,1.1,3,2.95,0,1.58-1.26,2.89-3.55,2.89A5.86,5.86,0,0,1,425.94,35.09Z" transform="translate(7.6 -6.83)"/><path d="M434.68,31.35c0-3.16,2.13-5.11,4.37-5.11,2.48,0,3.88,1.78,3.88,4.56a4.88,4.88,0,0,1-.08.93h-6.54c.11,2.06,1.37,3.4,3.23,3.4a4.23,4.23,0,0,0,2.42-.78l.59,1.08a5.73,5.73,0,0,1-3.22,1C436.74,36.44,434.68,34.54,434.68,31.35Zm6.8-.8c0-1.94-.88-3-2.4-3-1.37,0-2.59,1.09-2.79,3Z" transform="translate(7.6 -6.83)"/><path d="M444.43,33.67c0-2.11,1.83-3.17,6-3.62,0-1.25-.41-2.46-2-2.46a5.33,5.33,0,0,0-2.9,1l-.65-1.13a7.21,7.21,0,0,1,3.82-1.26c2.38,0,3.38,1.57,3.38,4v6h-1.36L450.55,35h-.05a5.18,5.18,0,0,1-3.22,1.4A2.64,2.64,0,0,1,444.43,33.67Zm6,.16v-2.7c-3.25.39-4.36,1.19-4.36,2.43s.75,1.55,1.71,1.55A4,4,0,0,0,450.4,33.83Z" transform="translate(7.6 -6.83)"/><path d="M455.12,26.48h1.36l.14,1.77h.06a3.32,3.32,0,0,1,2.76-2,2.22,2.22,0,0,1,1,.2l-.31,1.44a2.58,2.58,0,0,0-.94-.16c-.82,0-1.8.59-2.46,2.24V36.2h-1.65Z" transform="translate(7.6 -6.83)"/><path d="M461.14,31.35c0-3.25,2.2-5.11,4.68-5.11a4.08,4.08,0,0,1,2.85,1.14l-.84,1.08a2.84,2.84,0,0,0-1.93-.86c-1.76,0-3.06,1.52-3.06,3.75s1.22,3.72,3,3.72a3.51,3.51,0,0,0,2.29-1l.71,1.1a4.72,4.72,0,0,1-3.14,1.24C463.12,36.44,461.14,34.57,461.14,31.35Z" transform="translate(7.6 -6.83)"/><path d="M471,22h1.64v3.9l-.06,2a4.66,4.66,0,0,1,3.23-1.6c2,0,3,1.32,3,3.8V36.2h-1.64v-6c0-1.81-.55-2.59-1.84-2.59-1,0-1.68.51-2.66,1.5v7H471Z" transform="translate(7.6 -6.83)"/><path d="M486,23.07h3.29c4,0,6.2,2.35,6.2,6.52s-2.17,6.61-6.13,6.61H486Zm3.16,11.76c3.07,0,4.6-1.92,4.6-5.24s-1.53-5.15-4.6-5.15h-1.49V34.83Z" transform="translate(7.6 -6.83)"/><path d="M497.45,31.35c0-3.16,2.13-5.11,4.37-5.11,2.48,0,3.88,1.78,3.88,4.56a4.88,4.88,0,0,1-.08.93h-6.55c.12,2.06,1.38,3.4,3.23,3.4a4.21,4.21,0,0,0,2.42-.78l.59,1.08a5.7,5.7,0,0,1-3.21,1C499.51,36.44,497.45,34.54,497.45,31.35Zm6.79-.8c0-1.94-.87-3-2.39-3s-2.59,1.09-2.79,3Z" transform="translate(7.6 -6.83)"/><path d="M507,35.09l.82-1.08a4.37,4.37,0,0,0,2.87,1.15c1.27,0,1.91-.68,1.91-1.51,0-1-1.15-1.45-2.23-1.85-1.36-.49-2.9-1.16-2.9-2.8s1.25-2.76,3.36-2.76a4.89,4.89,0,0,1,3,1.09l-.79,1.05a3.67,3.67,0,0,0-2.21-.86c-1.23,0-1.79.65-1.79,1.39,0,.93,1.05,1.28,2.15,1.69,1.41.53,3,1.1,3,2.95,0,1.58-1.25,2.89-3.55,2.89A5.89,5.89,0,0,1,507,35.09Z" transform="translate(7.6 -6.83)"/><path d="M516.16,23.41a1.14,1.14,0,0,1,2.28,0,1.14,1.14,0,0,1-2.28,0Zm.3,3.07h1.65V36.2h-1.65Z" transform="translate(7.6 -6.83)"/><path d="M520.65,38.07a2.71,2.71,0,0,1,1.43-2.2v-.08a1.79,1.79,0,0,1-.87-1.6,2.33,2.33,0,0,1,1.07-1.8v-.08A3.37,3.37,0,0,1,521,29.7a3.45,3.45,0,0,1,3.65-3.46,3.82,3.82,0,0,1,1.37.24h3.39v1.26h-2a2.79,2.79,0,0,1,.79,2,3.32,3.32,0,0,1-3.56,3.37,3.37,3.37,0,0,1-1.45-.33,1.44,1.44,0,0,0-.62,1.15c0,.62.4,1.06,1.7,1.06h1.9c2.26,0,3.39.71,3.39,2.32,0,1.81-1.91,3.36-4.91,3.36C522.3,40.67,520.65,39.74,520.65,38.07Zm7.33-.51c0-.9-.68-1.21-2-1.21h-1.68a5.78,5.78,0,0,1-1.26-.14,2,2,0,0,0-1,1.63c0,1,1,1.7,2.82,1.7S528,38.57,528,37.56Zm-1.24-7.86a2.08,2.08,0,1,0-4.14,0,2.08,2.08,0,1,0,4.14,0Z" transform="translate(7.6 -6.83)"/><path d="M531.48,26.48h1.36l.13,1.4H533a4.66,4.66,0,0,1,3.26-1.64c2.05,0,3,1.32,3,3.8V36.2h-1.65v-6c0-1.81-.54-2.59-1.83-2.59-1,0-1.68.51-2.66,1.5v7h-1.64Z" transform="translate(7.6 -6.83)"/><path d="M30.5,62.68H31l-.93,4.63a4.07,4.07,0,0,0-.11,1c0,1.26.6,2,1.83,2,1,0,1.92-.73,2.29-2.61l1-5h.51l-1,5.08c-.44,2.19-1.58,3-2.83,3a2.11,2.11,0,0,1-2.3-2.35,5.57,5.57,0,0,1,.1-1Z" transform="translate(7.6 -6.83)"/><path d="M37.42,64.83h.41l-.12.92h0a3.42,3.42,0,0,1,2.06-1.07,1.25,1.25,0,0,1,1.37,1.41,2.78,2.78,0,0,1-.1.78l-.74,3.72h-.49l.74-3.65a3.4,3.4,0,0,0,.09-.75c0-.7-.3-1.06-1-1.06a3.42,3.42,0,0,0-2,1.21l-.85,4.25h-.49Z" transform="translate(7.6 -6.83)"/><path d="M42.58,70.21a1.91,1.91,0,0,1,.05-.36L44.2,62h.5l-1.58,7.92a1.3,1.3,0,0,0,0,.24c0,.11,0,.18.17.18a.42.42,0,0,0,.2,0l0,.4a1,1,0,0,1-.4.08A.48.48,0,0,1,42.58,70.21Z" transform="translate(7.6 -6.83)"/><path d="M45.4,68.45c0-2.15,1.47-3.77,3-3.77,1.18,0,2,.84,2,2.28,0,2.16-1.47,3.77-3,3.77C46.17,70.73,45.4,69.9,45.4,68.45ZM49.89,67c0-1.25-.54-1.91-1.49-1.91-1.24,0-2.5,1.5-2.5,3.27,0,1.24.54,1.91,1.49,1.91C48.63,70.3,49.89,68.8,49.89,67Z" transform="translate(7.6 -6.83)"/><path d="M51.52,68.45a3.51,3.51,0,0,1,3.11-3.77,1.79,1.79,0,0,1,1.45.71l-.32.32a1.35,1.35,0,0,0-1.17-.59c-1.29,0-2.57,1.5-2.57,3.27,0,1.24.53,1.91,1.6,1.91a2.45,2.45,0,0,0,1.49-.6l.25.36a2.94,2.94,0,0,1-1.8.67A2,2,0,0,1,51.52,68.45Z" transform="translate(7.6 -6.83)"/><path d="M58.48,62H59L57.72,68.3h0l3.42-3.47h.6L59.5,67.17l1.39,3.42h-.51l-1.25-3.1-1.57,1.6-.31,1.5h-.49Z" transform="translate(7.6 -6.83)"/><path d="M65,69.59A3.45,3.45,0,0,1,65,69l.78-3.76h-.9l.07-.38.93,0,.4-1.64h.42l-.33,1.64h1.55l-.09.43H66.29l-.78,3.79a3,3,0,0,0,0,.44c0,.54.19.81.81.81a1.6,1.6,0,0,0,.69-.2l.14.37a2,2,0,0,1-.93.26A1.06,1.06,0,0,1,65,69.59Z" transform="translate(7.6 -6.83)"/><path d="M70,62h.5l-.65,3.19-.16.61h0a3.45,3.45,0,0,1,2.08-1.08,1.24,1.24,0,0,1,1.37,1.41,3.17,3.17,0,0,1-.09.78l-.74,3.72h-.5l.74-3.65a3.52,3.52,0,0,0,.1-.75c0-.7-.3-1.06-1-1.06a3.4,3.4,0,0,0-2,1.21l-.86,4.25h-.49Z" transform="translate(7.6 -6.83)"/><path d="M77.43,64.68c1.24,0,1.73.86,1.73,2a3.17,3.17,0,0,1-.17,1H75c-.31,1.81.57,2.58,1.72,2.58a2.58,2.58,0,0,0,1.44-.56l.22.36a3.07,3.07,0,0,1-1.73.62,2.1,2.1,0,0,1-2.2-2.37C74.43,66.17,76,64.68,77.43,64.68Zm1.2,2.66a3.11,3.11,0,0,0,.07-.69c0-.77-.34-1.54-1.32-1.54a2.66,2.66,0,0,0-2.32,2.23Z" transform="translate(7.6 -6.83)"/><path d="M82.53,70.59,84.25,62h.5l-.51,2.51L84,65.63h0a3.58,3.58,0,0,1,2.13-.95c1,0,1.68.73,1.68,2.08,0,2.22-1.54,4-3.13,4a1.65,1.65,0,0,1-1.48-.94h0l-.22.8Zm1.37-4.41-.62,3.08c.42.74.88,1,1.42,1,1.37,0,2.62-1.72,2.62-3.45,0-1.15-.5-1.73-1.29-1.73A3.61,3.61,0,0,0,83.9,66.18Z" transform="translate(7.6 -6.83)"/><path d="M89,70.21a3.37,3.37,0,0,1,0-.36L90.66,62h.49l-1.57,7.92a.88.88,0,0,0,0,.24.16.16,0,0,0,.18.18.39.39,0,0,0,.19,0l0,.4a1,1,0,0,1-.4.08A.48.48,0,0,1,89,70.21Z" transform="translate(7.6 -6.83)"/><path d="M91.86,68.65c0-2.21,1.54-4,3.13-4a1.65,1.65,0,0,1,1.48.94h0l.22-.79h.41L96,70.59h-.41l.13-.92h0a3,3,0,0,1-2.12,1.06C92.53,70.73,91.86,70,91.86,68.65Zm3.94.4.6-2.89c-.42-.74-.88-1-1.42-1-1.37,0-2.62,1.71-2.62,3.45,0,1.16.5,1.73,1.29,1.73A3,3,0,0,0,95.8,69.05Z" transform="translate(7.6 -6.83)"/><path d="M98.26,68.45a3.51,3.51,0,0,1,3.1-3.77,1.81,1.81,0,0,1,1.46.71l-.32.32a1.36,1.36,0,0,0-1.17-.59c-1.3,0-2.57,1.5-2.57,3.27,0,1.24.53,1.91,1.6,1.91a2.45,2.45,0,0,0,1.48-.6l.26.36a3,3,0,0,1-1.81.67C99.06,70.73,98.26,69.91,98.26,68.45Z" transform="translate(7.6 -6.83)"/><path d="M105.22,62h.49l-1.26,6.34h0l3.41-3.47h.6l-2.25,2.34,1.39,3.42h-.51l-1.25-3.1-1.57,1.6-.31,1.5h-.5Z" transform="translate(7.6 -6.83)"/><path d="M111.32,70.59,113,62h.49L113,64.47l-.24,1.16h0a3.58,3.58,0,0,1,2.13-.95c1,0,1.68.73,1.68,2.08,0,2.22-1.54,4-3.13,4a1.62,1.62,0,0,1-1.48-.94h0l-.23.8Zm1.37-4.41-.62,3.08c.42.74.88,1,1.42,1,1.36,0,2.62-1.72,2.62-3.45,0-1.15-.5-1.73-1.29-1.73A3.56,3.56,0,0,0,112.69,66.18Z" transform="translate(7.6 -6.83)"/><path d="M117.77,68.45c0-2.15,1.47-3.77,3-3.77,1.18,0,1.94.84,1.94,2.28,0,2.16-1.47,3.77-3,3.77C118.53,70.73,117.77,69.9,117.77,68.45ZM122.25,67c0-1.25-.54-1.91-1.49-1.91-1.23,0-2.5,1.5-2.5,3.27,0,1.24.54,1.91,1.49,1.91C121,70.3,122.25,68.8,122.25,67Z" transform="translate(7.6 -6.83)"/><path d="M125.36,67.55l-1.14-2.72h.52l.59,1.45c.14.36.24.63.38,1h0c.28-.32.56-.63.84-1l1.25-1.45h.55L126,67.65l1.23,2.94h-.52L126.05,69c-.14-.36-.3-.74-.46-1.1h0c-.27.36-.58.7-.92,1.08l-1.37,1.58h-.57Z" transform="translate(7.6 -6.83)"/><path d="M128.32,70.31a.64.64,0,0,1,.59-.63c.25,0,.37.19.37.44a.6.6,0,0,1-.56.61A.39.39,0,0,1,128.32,70.31Z" transform="translate(7.6 -6.83)"/><path d="M23,82c0-2.39,1.49-5.08,4.12-5.08A2.14,2.14,0,0,1,29,78.06l-.39.27a1.69,1.69,0,0,0-1.51-.94c-2.28,0-3.57,2.55-3.57,4.55,0,1.52.65,2.75,2.34,2.75a2.39,2.39,0,0,0,1.62-.6l.5-2.53H26.13l.09-.44h2.32l-.66,3.22a3.2,3.2,0,0,1-2.11.79C23.89,85.13,23,83.85,23,82Z" transform="translate(7.6 -6.83)"/><path d="M32.77,79.08c1.25,0,1.73.86,1.73,2a3.21,3.21,0,0,1-.16,1h-4c-.31,1.81.57,2.58,1.72,2.58a2.61,2.61,0,0,0,1.44-.56l.22.36a3.08,3.08,0,0,1-1.74.62,2.09,2.09,0,0,1-2.19-2.37C29.78,80.57,31.3,79.08,32.77,79.08ZM34,81.74a3.84,3.84,0,0,0,.07-.69c0-.77-.34-1.54-1.32-1.54a2.65,2.65,0,0,0-2.32,2.23Z" transform="translate(7.6 -6.83)"/><path d="M35.72,84a3.45,3.45,0,0,1,.05-.57l.78-3.76h-.9l.07-.38.93,0,.4-1.64h.42l-.33,1.64h1.55l-.09.43H37l-.78,3.79a3,3,0,0,0,0,.44c0,.54.19.81.81.81a1.6,1.6,0,0,0,.69-.2l.14.37a2,2,0,0,1-.93.26A1.06,1.06,0,0,1,35.72,84Z" transform="translate(7.6 -6.83)"/><path d="M44.4,79.08c1.25,0,1.73.86,1.73,2a3.53,3.53,0,0,1-.16,1H42c-.31,1.81.58,2.58,1.73,2.58a2.64,2.64,0,0,0,1.44-.56l.21.36a3,3,0,0,1-1.73.62,2.09,2.09,0,0,1-2.19-2.37C41.41,80.57,42.92,79.08,44.4,79.08Zm1.2,2.66a3.11,3.11,0,0,0,.07-.69c0-.77-.34-1.54-1.32-1.54A2.67,2.67,0,0,0,42,81.74Z" transform="translate(7.6 -6.83)"/><path d="M47.22,79.23h.49l.56,3.64c.08.56.15,1.16.24,1.7h0c.29-.56.59-1.14.9-1.7l1.95-3.64h.51L48.76,85h-.63Z" transform="translate(7.6 -6.83)"/><path d="M55.13,79.08c1.25,0,1.74.86,1.74,2a3.17,3.17,0,0,1-.17,1h-4c-.31,1.81.57,2.58,1.72,2.58a2.61,2.61,0,0,0,1.44-.56l.22.36a3.08,3.08,0,0,1-1.74.62,2.09,2.09,0,0,1-2.19-2.37C52.14,80.57,53.66,79.08,55.13,79.08Zm1.21,2.66a3.84,3.84,0,0,0,.07-.69c0-.77-.34-1.54-1.32-1.54a2.65,2.65,0,0,0-2.32,2.23Z" transform="translate(7.6 -6.83)"/><path d="M59,79.23h.42l-.18,1.09h.05a2.39,2.39,0,0,1,1.8-1.24,1.45,1.45,0,0,1,.52.1l-.19.47a1,1,0,0,0-.45-.1c-.61,0-1.35.6-1.87,1.63L58.37,85h-.5Z" transform="translate(7.6 -6.83)"/><path d="M60.46,87.48l.19-.4a.88.88,0,0,0,.41.1c.68,0,1.29-.63,1.76-1.6l.25-.5-1-5.85h.49l.57,3.61c.09.55.17,1.18.24,1.72h.05c.28-.56.59-1.15.89-1.72l2-3.61h.51L63.25,85.7c-.5,1-1.17,1.91-2.22,1.91A1.46,1.46,0,0,1,60.46,87.48Z" transform="translate(7.6 -6.83)"/><path d="M67,85l1.73-8.63h.49l-.51,2.51L68.46,80h0a3.58,3.58,0,0,1,2.13-1c1,0,1.67.73,1.67,2.08,0,2.22-1.53,4-3.12,4a1.62,1.62,0,0,1-1.48-.94h0l-.22.8Zm1.38-4.41-.63,3.08c.43.74.88,1,1.43,1,1.36,0,2.61-1.72,2.61-3.45,0-1.15-.49-1.73-1.28-1.73A3.56,3.56,0,0,0,68.38,80.58Z" transform="translate(7.6 -6.83)"/><path d="M73.45,82.85c0-2.15,1.47-3.77,3-3.77,1.18,0,2,.84,2,2.28,0,2.16-1.47,3.77-3,3.77C74.22,85.13,73.45,84.3,73.45,82.85Zm4.49-1.42c0-1.25-.54-1.91-1.49-1.91-1.24,0-2.5,1.5-2.5,3.27,0,1.24.54,1.91,1.49,1.91C76.68,84.7,77.94,83.2,77.94,81.43Z" transform="translate(7.6 -6.83)"/><path d="M84.47,78.87,85,76.36h.5L83.73,85h-.41l.13-.92h0a3,3,0,0,1-2.12,1.06c-1,0-1.68-.73-1.68-2.08,0-2.21,1.54-4,3.13-4A1.64,1.64,0,0,1,84.2,80h0Zm-.93,4.58.6-2.89c-.42-.74-.88-1-1.42-1-1.37,0-2.62,1.71-2.62,3.45,0,1.16.5,1.73,1.29,1.73A3,3,0,0,0,83.54,83.45Z" transform="translate(7.6 -6.83)"/><path d="M84.57,87.48l.19-.4a.86.86,0,0,0,.41.1c.68,0,1.29-.63,1.76-1.6l.25-.5-1-5.85h.49l.57,3.61c.09.55.17,1.18.24,1.72h0c.28-.56.59-1.15.89-1.72l2-3.61h.51L87.35,85.7c-.5,1-1.16,1.91-2.21,1.91A1.46,1.46,0,0,1,84.57,87.48Z" transform="translate(7.6 -6.83)"/><path d="M93.53,82.85c0-2.15,1.47-3.77,3-3.77,1.18,0,2,.84,2,2.28,0,2.16-1.47,3.77-3,3.77C94.29,85.13,93.53,84.3,93.53,82.85ZM98,81.43c0-1.25-.54-1.91-1.49-1.91-1.23,0-2.5,1.5-2.5,3.27,0,1.24.54,1.91,1.49,1.91C96.75,84.7,98,83.2,98,81.43Z" transform="translate(7.6 -6.83)"/><path d="M100.78,79.23h.41l-.13.92h0a3.42,3.42,0,0,1,2.06-1.07,1.25,1.25,0,0,1,1.37,1.41,2.78,2.78,0,0,1-.1.78L103.7,85h-.49l.74-3.65a3.4,3.4,0,0,0,.09-.75c0-.7-.3-1.06-1-1.06a3.39,3.39,0,0,0-2,1.21L100.12,85h-.49Z" transform="translate(7.6 -6.83)"/><path d="M108.21,85l1.72-8.63h.49l-.51,2.51L109.66,80h0a3.58,3.58,0,0,1,2.13-1c1,0,1.67.73,1.67,2.08,0,2.22-1.53,4-3.12,4a1.62,1.62,0,0,1-1.48-.94h0l-.22.8Zm1.37-4.41L109,83.66c.43.74.88,1,1.43,1,1.36,0,2.61-1.72,2.61-3.45,0-1.15-.49-1.73-1.28-1.73A3.56,3.56,0,0,0,109.58,80.58Z" transform="translate(7.6 -6.83)"/><path d="M114.65,82.85c0-2.15,1.48-3.77,3-3.77,1.18,0,2,.84,2,2.28,0,2.16-1.47,3.77-3,3.77C115.42,85.13,114.65,84.3,114.65,82.85Zm4.49-1.42c0-1.25-.54-1.91-1.49-1.91-1.23,0-2.5,1.5-2.5,3.27,0,1.24.54,1.91,1.49,1.91C117.88,84.7,119.14,83.2,119.14,81.43Z" transform="translate(7.6 -6.83)"/><path d="M120.8,83.05c0-2.21,1.54-4,3.13-4a1.65,1.65,0,0,1,1.48.94h0l.22-.79h.41L124.93,85h-.41l.13-.92h-.05a3,3,0,0,1-2.12,1.06C121.47,85.13,120.8,84.4,120.8,83.05Zm3.94.4.6-2.89c-.42-.74-.88-1-1.42-1-1.37,0-2.62,1.71-2.62,3.45,0,1.16.5,1.73,1.29,1.73A3,3,0,0,0,124.74,83.45Z" transform="translate(7.6 -6.83)"/><path d="M128.33,79.23h.42l-.18,1.09h.05a2.38,2.38,0,0,1,1.8-1.24,1.49,1.49,0,0,1,.52.1l-.19.47a1,1,0,0,0-.45-.1c-.62,0-1.35.6-1.87,1.63L127.67,85h-.49Z" transform="translate(7.6 -6.83)"/><path d="M135.88,78.87l.51-2.51h.49L135.14,85h-.41l.12-.92h0a3,3,0,0,1-2.12,1.06c-1,0-1.68-.73-1.68-2.08,0-2.21,1.53-4,3.12-4a1.64,1.64,0,0,1,1.48.94h0ZM135,83.45l.6-2.89c-.42-.74-.88-1-1.42-1-1.37,0-2.62,1.71-2.62,3.45,0,1.16.5,1.73,1.28,1.73A3,3,0,0,0,135,83.45Z" transform="translate(7.6 -6.83)"/><path d="M40.45,97.45c0-2.21,1.54-4,3.13-4a1.65,1.65,0,0,1,1.48.94h0l.22-.79h.41l-1.15,5.76h-.42l.13-.92h0a3,3,0,0,1-2.12,1.06C41.12,99.53,40.45,98.8,40.45,97.45Zm3.95.4L45,95c-.43-.74-.89-1-1.43-1-1.36,0-2.62,1.71-2.62,3.45,0,1.16.5,1.73,1.29,1.73A3,3,0,0,0,44.4,97.85Z" transform="translate(7.6 -6.83)"/><path d="M48,93.63h.41l-.13.92h0a3.37,3.37,0,0,1,2.06-1.07,1.25,1.25,0,0,1,1.37,1.41,3.21,3.21,0,0,1-.1.78l-.74,3.72h-.5l.74-3.65a3.52,3.52,0,0,0,.1-.75c0-.7-.3-1.06-1-1.06a3.39,3.39,0,0,0-2,1.21l-.85,4.25h-.5Z" transform="translate(7.6 -6.83)"/><path d="M58,93.27l.5-2.51H59l-1.75,8.63h-.41l.13-.92h0a3,3,0,0,1-2.12,1.06c-1,0-1.68-.73-1.68-2.08,0-2.21,1.54-4,3.13-4a1.64,1.64,0,0,1,1.47.94h.05ZM57,97.85l.6-2.89c-.42-.74-.88-1-1.42-1-1.37,0-2.62,1.71-2.62,3.45,0,1.16.5,1.73,1.29,1.73A3,3,0,0,0,57,97.85Z" transform="translate(7.6 -6.83)"/><path d="M63,93.63h.5l-1.16,5.76h-.49Zm.16-1.79a.53.53,0,0,1,.5-.54.4.4,0,0,1,.41.42.51.51,0,0,1-.51.51A.38.38,0,0,1,63.16,91.84Z" transform="translate(7.6 -6.83)"/><path d="M65.74,93.63h.42l-.13.92h0a3.42,3.42,0,0,1,2.06-1.07,1.25,1.25,0,0,1,1.37,1.41,3.17,3.17,0,0,1-.09.78l-.75,3.72h-.49l.74-3.65A3.4,3.4,0,0,0,69,95c0-.7-.3-1.06-1-1.06a3.42,3.42,0,0,0-2,1.21l-.85,4.25h-.49Z" transform="translate(7.6 -6.83)"/><path d="M70.84,96.17h2.51l-.1.43H70.74Z" transform="translate(7.6 -6.83)"/><path d="M74.72,98.39a5,5,0,0,1,0-.57l.78-3.76h-.89l.07-.38.93-.05.4-1.64h.42l-.34,1.64H77.7l-.1.43H76.05l-.78,3.79a2,2,0,0,0,0,.44c0,.54.19.81.81.81a1.52,1.52,0,0,0,.69-.2l.15.37a2,2,0,0,1-.93.26A1.06,1.06,0,0,1,74.72,98.39Z" transform="translate(7.6 -6.83)"/><path d="M79.75,90.76h.49L79.6,94l-.16.61h0a3.43,3.43,0,0,1,2.08-1.08,1.25,1.25,0,0,1,1.37,1.41,2.78,2.78,0,0,1-.1.78l-.74,3.72h-.49l.73-3.65a3.52,3.52,0,0,0,.1-.75c0-.7-.3-1.06-1-1.06a3.39,3.39,0,0,0-2,1.21l-.85,4.25H78Z" transform="translate(7.6 -6.83)"/><path d="M87.18,93.48c1.25,0,1.73.86,1.73,2a3.53,3.53,0,0,1-.16,1h-4c-.31,1.81.58,2.58,1.73,2.58a2.64,2.64,0,0,0,1.44-.56l.21.36a3,3,0,0,1-1.73.62,2.09,2.09,0,0,1-2.19-2.37C84.19,95,85.7,93.48,87.18,93.48Zm1.2,2.66a3.11,3.11,0,0,0,.07-.69c0-.77-.34-1.54-1.31-1.54a2.67,2.67,0,0,0-2.33,2.23Z" transform="translate(7.6 -6.83)"/><path d="M90.17,96.17h2.51l-.09.43H90.08Z" transform="translate(7.6 -6.83)"/><path d="M95.39,90.76h.5L94.63,97.1h0l3.41-3.47h.6L96.41,96l1.4,3.42h-.52L96,96.29l-1.57,1.6-.31,1.5h-.49Z" transform="translate(7.6 -6.83)"/><path d="M100.28,93.63h.42l-.13.92h0a3.42,3.42,0,0,1,2.06-1.07A1.25,1.25,0,0,1,104,94.89a3.17,3.17,0,0,1-.09.78l-.75,3.72h-.49l.74-3.65a3.4,3.4,0,0,0,.09-.75c0-.7-.3-1.06-1-1.06a3.42,3.42,0,0,0-2,1.21l-.85,4.25h-.49Z" transform="translate(7.6 -6.83)"/><path d="M105.38,97.25c0-2.15,1.47-3.77,3-3.77,1.18,0,2,.84,2,2.28,0,2.16-1.47,3.77-3,3.77C106.15,99.53,105.38,98.7,105.38,97.25Zm4.49-1.42c0-1.25-.54-1.91-1.49-1.91-1.24,0-2.5,1.5-2.5,3.27,0,1.24.54,1.91,1.49,1.91C108.61,99.1,109.87,97.6,109.87,95.83Z" transform="translate(7.6 -6.83)"/><path d="M111.8,93.63h.49l.3,3.76c0,.54.07,1,.11,1.56h0c.24-.51.45-1,.69-1.56l1.73-3.76h.6l.26,3.76c0,.54.06,1,.09,1.56h0c.24-.51.45-1,.71-1.56l1.76-3.76h.48l-2.71,5.76h-.68l-.23-3.59c0-.55,0-1.17-.09-1.71h0c-.24.54-.5,1.16-.75,1.71L113,99.39h-.66Z" transform="translate(7.6 -6.83)"/></g></svg>