<?xml version="1.0" standalone="no"?>
<!DOCTYPE svg PUBLIC "-//W3C//DTD SVG 20010904//EN"
 "http://www.w3.org/TR/2001/REC-SVG-20010904/DTD/svg10.dtd">
<svg version="1.0" xmlns="http://www.w3.org/2000/svg"
 width="552.000000pt" height="552.000000pt" viewBox="0 0 552.000000 552.000000"
 preserveAspectRatio="xMidYMid meet">
<metadata>
Created by potrace 1.11, written by Peter Selinger 2001-2013
</metadata>
<g transform="translate(0.000000,552.000000) scale(0.100000,-0.100000)"
fill="#000000" stroke="none">
<path d="M2450 5498 c-85 -9 -139 -17 -170 -23 -13 -2 -42 -7 -65 -11 -22 -3
-58 -10 -80 -15 -22 -5 -51 -12 -65 -15 -102 -21 -313 -92 -445 -149 -312
-136 -576 -316 -826 -565 -288 -287 -497 -610 -629 -975 -18 -49 -35 -97 -38
-105 -3 -8 -7 -19 -8 -25 -12 -34 -73 -282 -78 -313 -3 -20 -7 -46 -10 -57 -2
-12 -7 -48 -11 -80 -4 -33 -9 -71 -11 -85 -2 -14 -7 -81 -10 -150 l-6 -125
1349 0 c741 -1 1350 3 1353 6 3 4 5 612 5 1351 l0 1343 -95 0 c-52 1 -124 -3
-160 -7z"/>
<path d="M2819 5504 c-1 -5 -2 -613 -3 -1351 -1 -895 2 -1344 9 -1346 5 -2
613 -3 1350 -2 l1340 0 -1 100 c-1 123 -11 229 -30 330 -3 17 -8 46 -10 65
-18 124 -100 397 -169 560 -74 176 -254 495 -287 508 -4 2 -8 8 -8 13 0 12
-105 148 -128 167 -9 6 -12 12 -8 12 8 0 -250 260 -299 301 -17 14 -62 50
-100 79 -39 30 -71 58 -73 62 -2 5 -8 8 -14 8 -5 0 -37 20 -71 44 -77 54 -358
213 -382 216 -3 0 -26 10 -52 21 -73 32 -265 100 -323 115 -99 26 -147 37
-210 49 -121 23 -132 25 -190 31 -30 3 -61 7 -68 10 -29 9 -272 16 -273 8z"/>
<path d="M5 2590 c3 -69 8 -138 10 -155 2 -16 7 -55 10 -85 4 -30 9 -63 12
-75 2 -11 6 -33 9 -50 2 -16 11 -59 20 -96 8 -36 16 -72 18 -80 10 -54 80
-272 96 -301 6 -10 10 -22 10 -28 0 -29 169 -362 217 -427 13 -18 22 -33 18
-33 -6 0 106 -157 183 -255 84 -107 338 -356 425 -417 17 -12 34 -25 37 -28
23 -28 266 -181 402 -253 124 -65 431 -185 518 -202 8 -2 35 -8 60 -15 25 -7
56 -14 70 -16 14 -3 59 -11 100 -19 150 -28 250 -39 385 -39 l100 -1 0 1348
c0 741 -2 1348 -5 1348 -3 1 -612 2 -1353 3 l-1348 1 6 -125z"/>
<path d="M2821 2710 c-4 -3 -7 -612 -6 -1354 l0 -1348 115 6 c318 17 552 66
869 181 83 30 234 101 336 158 89 50 269 167 273 178 2 5 10 9 18 9 8 0 14 3
14 8 0 4 16 18 35 31 19 13 45 33 58 45 13 11 58 51 99 88 80 72 162 155 225
229 21 25 44 52 51 60 84 93 241 337 320 494 73 147 158 355 176 435 2 8 11
40 20 71 9 31 18 65 20 75 2 11 13 66 25 124 33 169 44 273 45 425 l1 90
-1343 0 c-739 0 -1347 -2 -1351 -5z"/>
</g>
</svg>
